<?xml version="1.0" encoding="UTF-8"?><svg id="Layer_1" xmlns="http://www.w3.org/2000/svg" viewBox="0 0 1265.64 192.09"><defs><style>.cls-1{fill:#fff;}.cls-2{isolation:isolate;}</style></defs><g class="cls-2"><path class="cls-1" d="m178.56,105.62h7.56c1.18,0,2.29.11,3.33.34,1.04.23,1.94.61,2.68,1.15.74.54,1.3,1.26,1.67,2.16.37.9.46,2.01.27,3.33-.19,1.39-.62,2.54-1.28,3.46-.66.91-1.44,1.63-2.34,2.16s-1.86.9-2.88,1.12c-1.02.22-1.97.32-2.86.32h-5.11l-1.58,11.45h-3.02l3.56-25.49Zm1.44,11.23h5.11c1.51,0,2.79-.34,3.83-1.03,1.04-.68,1.67-1.75,1.89-3.19.19-1.44-.14-2.5-.99-3.19-.85-.68-2.03-1.03-3.55-1.03h-5.11l-1.19,8.42Z"/><path class="cls-1" d="m196.02,122.68c.19-1.32.59-2.52,1.19-3.6.6-1.08,1.36-2.01,2.27-2.79.91-.78,1.95-1.39,3.11-1.82,1.16-.43,2.39-.65,3.69-.65s2.47.22,3.51.65c1.04.43,1.91,1.04,2.59,1.82.68.78,1.18,1.71,1.48,2.79.3,1.08.35,2.28.16,3.6-.19,1.32-.59,2.52-1.19,3.6s-1.35,2.01-2.25,2.79c-.9.78-1.93,1.39-3.1,1.82-1.16.43-2.39.65-3.69.65s-2.47-.22-3.51-.65c-1.04-.43-1.91-1.04-2.59-1.82-.68-.78-1.18-1.71-1.49-2.79-.31-1.08-.37-2.28-.18-3.6Zm3.02,0c-.12.89-.09,1.71.09,2.47s.49,1.42.94,1.98c.44.56,1.01,1.01,1.69,1.33.68.32,1.48.49,2.39.49s1.76-.16,2.54-.49c.78-.32,1.47-.77,2.07-1.33.6-.56,1.09-1.22,1.48-1.98.38-.76.64-1.58.76-2.47s.1-1.71-.07-2.47c-.17-.76-.47-1.42-.92-1.98-.44-.56-1.01-1.01-1.69-1.33-.68-.32-1.48-.49-2.39-.49s-1.76.16-2.54.49c-.78.32-1.47.77-2.07,1.33-.6.56-1.1,1.22-1.49,1.98-.4.76-.65,1.58-.77,2.47Z"/><path class="cls-1" d="m235.29,131.11h-2.77l-2.99-12.96h-.07l-6.05,12.96h-2.88l-3.13-16.85h3.1l2.05,12.96h.07l6.16-12.96h2.95l2.63,12.96h.07l5.62-12.96h3.02l-7.78,16.85Z"/><path class="cls-1" d="m259.34,128.05c-1.18,1.3-2.4,2.2-3.67,2.72-1.27.52-2.7.77-4.28.77-1.32,0-2.48-.23-3.47-.7-1-.47-1.81-1.1-2.43-1.89-.62-.79-1.06-1.73-1.3-2.81-.24-1.08-.28-2.23-.11-3.46.19-1.3.58-2.49,1.17-3.58.59-1.09,1.32-2.03,2.2-2.81.88-.78,1.87-1.39,2.99-1.82,1.12-.43,2.3-.65,3.55-.65,1.18,0,2.23.2,3.17.59.94.4,1.7.97,2.29,1.73.59.76,1,1.68,1.24,2.77.24,1.09.26,2.33.07,3.73l-.14.9h-13.61c-.05.72.03,1.41.23,2.07.2.66.51,1.24.92,1.73.41.49.92.88,1.53,1.17.61.29,1.3.43,2.07.43,1.22,0,2.29-.22,3.19-.65.9-.43,1.75-1.07,2.54-1.91l1.87,1.66Zm-1.4-6.88c.14-1.44-.16-2.59-.92-3.46-.76-.86-1.91-1.3-3.47-1.3s-2.89.43-3.98,1.3c-1.09.86-1.83,2.02-2.21,3.46h10.58Z"/><path class="cls-1" d="m265.71,118.26c.12-.77.2-1.49.23-2.16.04-.67.09-1.28.16-1.84h2.7c-.05.46-.1.91-.14,1.37-.05.46-.11.92-.18,1.4h.07c.24-.41.56-.8.97-1.19s.88-.73,1.4-1.03c.53-.3,1.1-.54,1.73-.72.62-.18,1.28-.27,1.98-.27.19,0,.38.01.56.04.18.02.37.07.56.14l-.58,2.84c-.43-.14-.92-.22-1.48-.22-1.73,0-3.06.56-4,1.67-.94,1.12-1.54,2.65-1.81,4.59l-1.17,8.21h-2.82l1.8-12.85Z"/><path class="cls-1" d="m286.77,122.68c.19-1.32.59-2.52,1.19-3.6.6-1.08,1.36-2.01,2.27-2.79.91-.78,1.95-1.39,3.11-1.82,1.16-.43,2.39-.65,3.69-.65s2.47.22,3.51.65c1.04.43,1.91,1.04,2.59,1.82.68.78,1.18,1.71,1.48,2.79.3,1.08.35,2.28.16,3.6-.19,1.32-.59,2.52-1.19,3.6s-1.35,2.01-2.25,2.79c-.9.78-1.93,1.39-3.1,1.82-1.16.43-2.39.65-3.69.65s-2.47-.22-3.51-.65c-1.04-.43-1.91-1.04-2.59-1.82-.68-.78-1.18-1.71-1.49-2.79-.31-1.08-.37-2.28-.18-3.6Zm3.02,0c-.12.89-.09,1.71.09,2.47s.49,1.42.94,1.98c.44.56,1.01,1.01,1.69,1.33.68.32,1.48.49,2.39.49s1.76-.16,2.54-.49c.78-.32,1.47-.77,2.07-1.33.6-.56,1.09-1.22,1.48-1.98.38-.76.64-1.58.76-2.47s.1-1.71-.07-2.47c-.17-.76-.47-1.42-.92-1.98-.44-.56-1.01-1.01-1.69-1.33-.68-.32-1.48-.49-2.39-.49s-1.76.16-2.54.49c-.78.32-1.47.77-2.07,1.33-.6.56-1.1,1.22-1.49,1.98-.4.76-.65,1.58-.77,2.47Z"/><path class="cls-1" d="m311.43,116.64h-3.67l.32-2.38h3.67l.54-3.78c.14-1.03.37-1.97.68-2.83.31-.85.74-1.59,1.3-2.21.55-.62,1.24-1.11,2.05-1.46.82-.35,1.79-.52,2.92-.52.36,0,.74.04,1.13.11s.73.18.99.32l-.76,2.52c-.29-.12-.59-.21-.9-.27-.31-.06-.64-.09-.97-.09-.72,0-1.3.13-1.75.38-.44.25-.79.6-1.04,1.04s-.44.98-.58,1.6c-.13.62-.25,1.3-.34,2.02l-.47,3.17h4.1l-.32,2.38h-4.1l-2.02,14.47h-2.81l2.02-14.47Z"/><path class="cls-1" d="m333.39,105.62h3.02l-1.51,10.8h13.61l1.51-10.8h3.02l-3.56,25.49h-3.02l1.66-11.88h-13.61l-1.66,11.88h-3.02l3.56-25.49Z"/><path class="cls-1" d="m370.76,128.05c-1.18,1.3-2.4,2.2-3.67,2.72-1.27.52-2.7.77-4.28.77-1.32,0-2.48-.23-3.47-.7-1-.47-1.81-1.1-2.43-1.89-.62-.79-1.06-1.73-1.3-2.81-.24-1.08-.28-2.23-.11-3.46.19-1.3.58-2.49,1.17-3.58.59-1.09,1.32-2.03,2.2-2.81.88-.78,1.87-1.39,2.99-1.82,1.12-.43,2.3-.65,3.55-.65,1.18,0,2.23.2,3.17.59.94.4,1.7.97,2.29,1.73.59.76,1,1.68,1.24,2.77.24,1.09.26,2.33.07,3.73l-.14.9h-13.61c-.05.72.03,1.41.23,2.07.2.66.51,1.24.92,1.73.41.49.92.88,1.53,1.17.61.29,1.3.43,2.07.43,1.22,0,2.29-.22,3.19-.65.9-.43,1.75-1.07,2.54-1.91l1.87,1.66Zm-1.4-6.88c.14-1.44-.16-2.59-.92-3.46-.76-.86-1.91-1.3-3.47-1.3s-2.89.43-3.98,1.3c-1.09.86-1.83,2.02-2.21,3.46h10.58Z"/><path class="cls-1" d="m377.17,116.42c1.01-.89,2.13-1.54,3.37-1.96,1.24-.42,2.47-.63,3.69-.63,2.5,0,4.21.59,5.15,1.76s1.24,2.96.9,5.36l-1.01,7.24c-.07.48-.12.98-.14,1.49-.02.52-.02.99,0,1.42h-2.7c-.05-.38-.05-.81,0-1.28.05-.47.1-.88.14-1.24h-.07c-.67.86-1.51,1.57-2.5,2.12-1,.55-2.14.83-3.44.83-.86,0-1.66-.11-2.38-.32-.72-.22-1.34-.53-1.85-.95s-.9-.94-1.15-1.57-.32-1.34-.2-2.16c.19-1.39.7-2.48,1.53-3.28s1.81-1.38,2.93-1.76c1.13-.38,2.32-.62,3.56-.72,1.25-.1,2.39-.14,3.42-.14h1.08l.07-.5c.19-1.22-.04-2.15-.68-2.77-.65-.62-1.63-.94-2.95-.94-.91,0-1.83.15-2.75.45-.92.3-1.76.76-2.5,1.39l-1.51-1.84Zm7.2,6.59c-1.8,0-3.26.25-4.39.76-1.13.5-1.78,1.33-1.94,2.48-.14,1.06.11,1.81.76,2.25.65.44,1.5.67,2.56.67.82,0,1.55-.14,2.2-.41.65-.28,1.21-.64,1.69-1.1.48-.46.87-.99,1.17-1.6.3-.61.51-1.27.63-1.96l.14-1.08h-2.81Z"/><path class="cls-1" d="m398.08,103.89h2.81l-3.82,27.22h-2.81l3.82-27.22Z"/><path class="cls-1" d="m405.28,114.26h2.81l-2.34,16.85h-2.81l2.34-16.85Zm.29-6.59c.07-.55.34-1.03.79-1.44.46-.41.97-.61,1.55-.61s1.03.2,1.37.61c.34.41.47.89.4,1.44-.1.6-.36,1.09-.79,1.48s-.95.58-1.55.58-1.07-.19-1.4-.58c-.34-.38-.46-.88-.36-1.48Z"/><path class="cls-1" d="m413.13,118.26c.12-.77.2-1.49.23-2.16.04-.67.09-1.28.16-1.84h2.7c-.05.46-.1.91-.14,1.37-.05.46-.11.92-.18,1.4h.07c.24-.41.56-.8.97-1.19s.88-.73,1.4-1.03c.53-.3,1.1-.54,1.73-.72.62-.18,1.28-.27,1.98-.27,1.1,0,2.03.17,2.79.5.76.34,1.36.8,1.8,1.4.44.6.73,1.33.86,2.18.13.85.13,1.78-.02,2.79l-1.44,10.4h-2.81l1.4-10.12c.19-1.42.04-2.53-.47-3.35-.5-.82-1.42-1.22-2.74-1.22-1.82,0-3.23.6-4.23,1.8s-1.63,2.76-1.9,4.68l-1.17,8.21h-2.82l1.8-12.85Z"/><path class="cls-1" d="m448.23,130.35c-.41,3.07-1.51,5.41-3.31,7-1.8,1.6-4.19,2.39-7.16,2.39-1.66,0-3.12-.24-4.39-.72-1.27-.48-2.42-1.31-3.46-2.48l2.34-2.3c.77.96,1.61,1.69,2.54,2.18.92.49,2.03.74,3.33.74s2.31-.19,3.19-.56c.88-.37,1.6-.88,2.18-1.51.58-.64,1.01-1.36,1.31-2.18.3-.82.51-1.67.63-2.56l.32-2.16h-.07c-.84,1.08-1.83,1.87-2.97,2.38-1.14.5-2.27.76-3.4.76-1.32,0-2.5-.22-3.55-.65-1.04-.43-1.91-1.03-2.59-1.8-.68-.77-1.17-1.68-1.46-2.74s-.35-2.21-.18-3.46c.19-1.37.58-2.6,1.17-3.71.59-1.1,1.33-2.03,2.23-2.79s1.93-1.34,3.08-1.75c1.15-.41,2.4-.61,3.74-.61,1.15,0,2.25.27,3.29.81s1.77,1.37,2.18,2.5h.07l.4-2.88h2.81l-2.27,16.09Zm-13.68-7.67c-.12.86-.07,1.66.14,2.39.22.73.55,1.37,1.01,1.91.46.54,1.03.97,1.71,1.28s1.43.47,2.25.47c.96,0,1.84-.17,2.63-.5s1.48-.79,2.07-1.35c.59-.56,1.07-1.21,1.44-1.94.37-.73.62-1.51.74-2.32.12-.91.09-1.75-.09-2.5-.18-.76-.5-1.41-.95-1.96-.46-.55-1.03-.98-1.73-1.28-.7-.3-1.49-.45-2.38-.45s-1.72.16-2.48.49c-.77.32-1.46.77-2.07,1.33-.61.56-1.12,1.22-1.51,1.98-.4.76-.65,1.58-.77,2.47Z"/><path class="cls-1" d="m465.94,114.26h2.81l-2.34,16.85h-2.81l2.34-16.85Zm.29-6.59c.07-.55.34-1.03.79-1.44.46-.41.97-.61,1.55-.61s1.03.2,1.37.61c.34.41.47.89.4,1.44-.1.6-.36,1.09-.79,1.48s-.95.58-1.55.58-1.07-.19-1.4-.58c-.34-.38-.46-.88-.36-1.48Z"/><path class="cls-1" d="m473.79,118.26c.12-.77.2-1.49.23-2.16.04-.67.09-1.28.16-1.84h2.7c-.05.46-.1.91-.14,1.37-.05.46-.11.92-.18,1.4h.07c.24-.41.56-.8.97-1.19s.88-.73,1.4-1.03c.53-.3,1.1-.54,1.73-.72.62-.18,1.28-.27,1.98-.27,1.1,0,2.03.17,2.79.5.76.34,1.36.8,1.8,1.4.44.6.73,1.33.86,2.18.13.85.13,1.78-.02,2.79l-1.44,10.4h-2.81l1.4-10.12c.19-1.42.04-2.53-.47-3.35-.5-.82-1.42-1.22-2.74-1.22-1.82,0-3.23.6-4.23,1.8s-1.63,2.76-1.9,4.68l-1.17,8.21h-2.82l1.8-12.85Z"/><path class="cls-1" d="m510.04,120.13l-7.45-14.51h3.85l5.54,11.52,9-11.52h3.64l-11.56,14.51-1.51,10.98h-3.02l1.51-10.98Z"/><path class="cls-1" d="m519.58,122.68c.19-1.32.59-2.52,1.19-3.6.6-1.08,1.36-2.01,2.27-2.79.91-.78,1.95-1.39,3.11-1.82,1.16-.43,2.39-.65,3.69-.65s2.47.22,3.51.65c1.04.43,1.91,1.04,2.59,1.82.68.78,1.18,1.71,1.48,2.79.3,1.08.35,2.28.16,3.6-.19,1.32-.59,2.52-1.19,3.6s-1.35,2.01-2.25,2.79c-.9.78-1.93,1.39-3.1,1.82-1.16.43-2.39.65-3.69.65s-2.47-.22-3.51-.65c-1.04-.43-1.91-1.04-2.59-1.82-.68-.78-1.18-1.71-1.49-2.79-.31-1.08-.37-2.28-.18-3.6Zm3.02,0c-.12.89-.09,1.71.09,2.47s.49,1.42.94,1.98c.44.56,1.01,1.01,1.69,1.33.68.32,1.48.49,2.39.49s1.76-.16,2.54-.49c.78-.32,1.47-.77,2.07-1.33.6-.56,1.09-1.22,1.48-1.98.38-.76.64-1.58.76-2.47s.1-1.71-.07-2.47c-.17-.76-.47-1.42-.92-1.98-.44-.56-1.01-1.01-1.69-1.33-.68-.32-1.48-.49-2.39-.49s-1.76.16-2.54.49c-.78.32-1.47.77-2.07,1.33-.6.56-1.1,1.22-1.49,1.98-.4.76-.65,1.58-.77,2.47Z"/><path class="cls-1" d="m556.01,127.11c-.12.77-.2,1.49-.23,2.16-.04.67-.09,1.28-.16,1.84h-2.66c.05-.46.1-.91.14-1.37.05-.46.1-.92.14-1.4h-.07c-.24.41-.56.8-.97,1.19-.41.38-.87.73-1.39,1.03s-1.09.54-1.71.72c-.62.18-1.28.27-1.98.27-1.1,0-2.03-.17-2.79-.5s-1.36-.8-1.8-1.4c-.44-.6-.73-1.33-.86-2.18-.13-.85-.13-1.78.02-2.79l1.44-10.4h2.81l-1.4,10.12c-.19,1.42-.04,2.53.47,3.35.5.82,1.42,1.22,2.74,1.22,1.82,0,3.23-.6,4.23-1.8,1-1.2,1.63-2.76,1.89-4.68l1.15-8.21h2.81l-1.8,12.85Z"/><path class="cls-1" d="m562.6,118.26c.12-.77.2-1.49.23-2.16.04-.67.09-1.28.16-1.84h2.7c-.05.46-.1.91-.14,1.37-.05.46-.11.92-.18,1.4h.07c.24-.41.56-.8.97-1.19s.88-.73,1.4-1.03c.53-.3,1.1-.54,1.73-.72.62-.18,1.28-.27,1.98-.27.19,0,.38.01.56.04.18.02.37.07.56.14l-.58,2.84c-.43-.14-.92-.22-1.48-.22-1.73,0-3.06.56-4,1.67-.94,1.12-1.54,2.65-1.81,4.59l-1.17,8.21h-2.82l1.8-12.85Z"/><path class="cls-1" d="m587.55,105.62h3.02l-1.51,10.8h13.61l1.51-10.8h3.02l-3.56,25.49h-3.02l1.66-11.88h-13.61l-1.66,11.88h-3.02l3.56-25.49Z"/><path class="cls-1" d="m611.31,116.42c1.01-.89,2.13-1.54,3.37-1.96,1.24-.42,2.47-.63,3.69-.63,2.5,0,4.21.59,5.15,1.76s1.24,2.96.9,5.36l-1.01,7.24c-.07.48-.12.98-.14,1.49-.02.52-.02.99,0,1.42h-2.7c-.05-.38-.05-.81,0-1.28.05-.47.1-.88.14-1.24h-.07c-.67.86-1.51,1.57-2.5,2.12-1,.55-2.14.83-3.44.83-.86,0-1.66-.11-2.38-.32-.72-.22-1.34-.53-1.85-.95s-.9-.94-1.15-1.57-.32-1.34-.2-2.16c.19-1.39.7-2.48,1.53-3.28s1.81-1.38,2.93-1.76c1.13-.38,2.32-.62,3.56-.72,1.25-.1,2.39-.14,3.42-.14h1.08l.07-.5c.19-1.22-.04-2.15-.68-2.77-.65-.62-1.63-.94-2.95-.94-.91,0-1.83.15-2.75.45-.92.3-1.76.76-2.5,1.39l-1.51-1.84Zm7.2,6.59c-1.8,0-3.26.25-4.39.76-1.13.5-1.78,1.33-1.94,2.48-.14,1.06.11,1.81.76,2.25.65.44,1.5.67,2.56.67.82,0,1.55-.14,2.2-.41.65-.28,1.21-.64,1.69-1.1.48-.46.87-.99,1.17-1.6.3-.61.51-1.27.63-1.96l.14-1.08h-2.81Z"/><path class="cls-1" d="m629.95,118.26c.12-.77.2-1.49.23-2.16.04-.67.09-1.28.16-1.84h2.7c-.05.46-.1.91-.14,1.37-.05.46-.11.92-.18,1.4h.07c.24-.41.56-.8.97-1.19s.88-.73,1.4-1.03c.53-.3,1.1-.54,1.73-.72.62-.18,1.28-.27,1.98-.27,1.1,0,2.03.17,2.79.5.76.34,1.36.8,1.8,1.4.44.6.73,1.33.86,2.18.13.85.13,1.78-.02,2.79l-1.44,10.4h-2.81l1.4-10.12c.19-1.42.04-2.53-.47-3.35-.5-.82-1.42-1.22-2.74-1.22-1.82,0-3.23.6-4.23,1.8s-1.63,2.76-1.9,4.68l-1.17,8.21h-2.82l1.8-12.85Z"/><path class="cls-1" d="m662.57,128.12h-.07c-.65.96-1.59,1.77-2.83,2.43-1.24.66-2.61.99-4.12.99-1.18,0-2.24-.22-3.2-.67-.96-.44-1.76-1.06-2.41-1.85-.65-.79-1.12-1.73-1.4-2.81-.29-1.08-.35-2.25-.18-3.53.17-1.27.55-2.45,1.13-3.53.59-1.08,1.33-2.02,2.21-2.81.89-.79,1.91-1.41,3.06-1.85,1.15-.44,2.39-.67,3.71-.67,1.22,0,2.31.25,3.26.76.95.5,1.75,1.21,2.39,2.12h.07l1.8-12.82h2.81l-3.82,27.22h-2.81l.4-2.99Zm.76-5.44c.12-.89.1-1.71-.07-2.47-.17-.76-.47-1.42-.92-1.98-.44-.56-1.01-1.01-1.69-1.33-.68-.32-1.48-.49-2.39-.49s-1.76.16-2.54.49c-.78.32-1.47.77-2.07,1.33-.6.56-1.1,1.22-1.49,1.98-.4.76-.65,1.58-.77,2.47-.12.89-.09,1.71.09,2.47s.49,1.42.94,1.98c.44.56,1.01,1.01,1.69,1.33.68.32,1.48.49,2.39.49s1.76-.16,2.54-.49c.78-.32,1.47-.77,2.07-1.33.6-.56,1.09-1.22,1.48-1.98.38-.76.64-1.58.76-2.47Z"/><path class="cls-1" d="m671.14,126.68c.46.7.98,1.25,1.58,1.66.6.41,1.4.61,2.41.61.43,0,.88-.05,1.33-.14.46-.1.88-.25,1.26-.47.38-.22.71-.49.97-.81s.43-.71.5-1.17c.07-.46.02-.83-.14-1.12-.17-.29-.41-.53-.72-.74-.31-.2-.68-.37-1.1-.49s-.85-.23-1.28-.32c-.77-.17-1.5-.36-2.2-.58-.7-.22-1.28-.5-1.76-.85-.48-.35-.84-.8-1.08-1.35-.24-.55-.3-1.26-.18-2.12.1-.82.37-1.54.83-2.16.46-.62,1.01-1.14,1.66-1.55s1.36-.72,2.14-.94c.78-.22,1.57-.32,2.36-.32,1.2,0,2.27.24,3.22.72.95.48,1.64,1.26,2.07,2.34l-2.56,1.55c-.26-.6-.67-1.09-1.21-1.46s-1.23-.56-2.07-.56c-.38,0-.78.05-1.19.14-.41.1-.79.24-1.13.43-.35.19-.64.44-.88.74-.24.3-.38.64-.43,1.03-.05.36.02.67.22.92.19.25.47.47.83.67.36.19.79.36,1.28.5.49.14,1.01.26,1.57.36.72.14,1.4.33,2.03.56.64.23,1.18.53,1.64.92.46.38.79.86.99,1.44.2.58.25,1.28.13,2.12-.12.96-.42,1.78-.9,2.45-.48.67-1.07,1.22-1.76,1.64-.7.42-1.46.73-2.29.92-.83.19-1.66.29-2.5.29-1.44,0-2.65-.22-3.64-.67-.98-.44-1.81-1.27-2.48-2.47l2.48-1.73Z"/><path class="cls-1" d="m713.58,131.11h-2.77l-2.99-12.96h-.07l-6.05,12.96h-2.88l-3.13-16.85h3.1l2.05,12.96h.07l6.16-12.96h2.95l2.63,12.96h.07l5.62-12.96h3.02l-7.78,16.85Z"/><path class="cls-1" d="m724.78,114.26h2.81l-2.34,16.85h-2.81l2.34-16.85Zm.29-6.59c.07-.55.34-1.03.79-1.44.46-.41.97-.61,1.55-.61s1.03.2,1.37.61c.34.41.47.89.4,1.44-.1.6-.36,1.09-.79,1.48s-.95.58-1.55.58-1.07-.19-1.4-.58c-.34-.38-.46-.88-.36-1.48Z"/><path class="cls-1" d="m742.06,116.64h-4.97l-1.19,8.42c-.07.55-.13,1.06-.16,1.53-.04.47,0,.88.11,1.22s.32.62.63.83c.31.2.78.31,1.4.31.41,0,.83-.05,1.28-.14.44-.1.87-.24,1.28-.43l-.25,2.56c-.5.22-1.06.37-1.66.47-.6.1-1.16.14-1.69.14-1.01,0-1.79-.13-2.36-.4s-.98-.64-1.24-1.12c-.26-.48-.4-1.07-.41-1.78-.01-.71.04-1.49.16-2.36l1.3-9.25h-3.67l.32-2.38h3.67l.68-4.79h2.81l-.68,4.79h4.97l-.32,2.38Z"/><path class="cls-1" d="m747.35,103.89h2.81l-1.8,12.71h.07c.24-.34.55-.67.94-.99.38-.32.83-.62,1.33-.88.5-.26,1.06-.48,1.66-.65.6-.17,1.22-.25,1.87-.25,1.1,0,2.03.17,2.79.5.76.34,1.36.8,1.8,1.4.44.6.73,1.33.86,2.18.13.85.13,1.78-.02,2.79l-1.44,10.4h-2.81l1.4-10.12c.19-1.42.04-2.53-.47-3.35-.5-.82-1.42-1.22-2.74-1.22-1.82,0-3.23.6-4.23,1.8-1,1.2-1.63,2.76-1.89,4.68l-1.15,8.21h-2.81l3.82-27.22Z"/><path class="cls-1" d="m794.33,108.43h-8.42l-3.17,22.68h-3.02l3.17-22.68h-8.42l.4-2.81h19.87l-.4,2.81Z"/><path class="cls-1" d="m798.04,103.89h2.81l-1.8,12.71h.07c.24-.34.55-.67.94-.99.38-.32.83-.62,1.33-.88.5-.26,1.06-.48,1.66-.65.6-.17,1.22-.25,1.87-.25,1.1,0,2.03.17,2.79.5.76.34,1.36.8,1.8,1.4.44.6.73,1.33.86,2.18.13.85.13,1.78-.02,2.79l-1.44,10.4h-2.81l1.4-10.12c.19-1.42.04-2.53-.47-3.35-.5-.82-1.42-1.22-2.74-1.22-1.82,0-3.23.6-4.23,1.8-1,1.2-1.63,2.76-1.89,4.68l-1.15,8.21h-2.81l3.82-27.22Z"/><path class="cls-1" d="m829.68,128.05c-1.18,1.3-2.4,2.2-3.67,2.72-1.27.52-2.7.77-4.28.77-1.32,0-2.48-.23-3.47-.7-1-.47-1.81-1.1-2.43-1.89-.62-.79-1.06-1.73-1.3-2.81-.24-1.08-.28-2.23-.11-3.46.19-1.3.58-2.49,1.17-3.58.59-1.09,1.32-2.03,2.2-2.81.88-.78,1.87-1.39,2.99-1.82,1.12-.43,2.3-.65,3.55-.65,1.18,0,2.23.2,3.17.59.94.4,1.7.97,2.29,1.73.59.76,1,1.68,1.24,2.77.24,1.09.26,2.33.07,3.73l-.14.9h-13.61c-.05.72.03,1.41.23,2.07.2.66.51,1.24.92,1.73.41.49.92.88,1.53,1.17.61.29,1.3.43,2.07.43,1.22,0,2.29-.22,3.19-.65.9-.43,1.75-1.07,2.54-1.91l1.87,1.66Zm-1.4-6.88c.14-1.44-.16-2.59-.92-3.46-.76-.86-1.91-1.3-3.47-1.3s-2.89.43-3.98,1.3c-1.09.86-1.83,2.02-2.21,3.46h10.58Z"/><path class="cls-1" d="m856.61,105.62h2.84l7.27,25.49h-3.53l-1.73-6.26h-12.74l-3.49,6.26h-3.42l14.8-25.49Zm.83,3.89h-.07l-7.06,12.53h10.4l-3.28-12.53Z"/><path class="cls-1" d="m871.41,118.26c.12-.77.2-1.49.23-2.16.04-.67.09-1.28.16-1.84h2.7c-.05.46-.1.91-.14,1.37-.05.46-.11.92-.18,1.4h.07c.24-.41.56-.8.97-1.19s.88-.73,1.4-1.03c.53-.3,1.1-.54,1.73-.72.62-.18,1.28-.27,1.98-.27.19,0,.38.01.56.04.18.02.37.07.56.14l-.58,2.84c-.43-.14-.92-.22-1.48-.22-1.73,0-3.06.56-4,1.67-.94,1.12-1.54,2.65-1.81,4.59l-1.17,8.21h-2.82l1.8-12.85Z"/><path class="cls-1" d="m893.51,116.64h-4.97l-1.19,8.42c-.07.55-.13,1.06-.16,1.53-.04.47,0,.88.11,1.22s.32.62.63.83c.31.2.78.31,1.4.31.41,0,.83-.05,1.28-.14.44-.1.87-.24,1.28-.43l-.25,2.56c-.5.22-1.06.37-1.66.47-.6.1-1.16.14-1.69.14-1.01,0-1.79-.13-2.36-.4s-.98-.64-1.24-1.12c-.26-.48-.4-1.07-.41-1.78-.01-.71.04-1.49.16-2.36l1.3-9.25h-3.67l.32-2.38h3.67l.68-4.79h2.81l-.68,4.79h4.97l-.32,2.38Z"/><path class="cls-1" d="m905.14,122.68c.19-1.32.59-2.52,1.19-3.6.6-1.08,1.36-2.01,2.27-2.79.91-.78,1.95-1.39,3.11-1.82,1.16-.43,2.39-.65,3.69-.65s2.47.22,3.51.65c1.04.43,1.91,1.04,2.59,1.82.68.78,1.18,1.71,1.48,2.79.3,1.08.35,2.28.16,3.6-.19,1.32-.59,2.52-1.19,3.6s-1.35,2.01-2.25,2.79c-.9.78-1.93,1.39-3.1,1.82-1.16.43-2.39.65-3.69.65s-2.47-.22-3.51-.65c-1.04-.43-1.91-1.04-2.59-1.82-.68-.78-1.18-1.71-1.49-2.79-.31-1.08-.37-2.28-.18-3.6Zm3.02,0c-.12.89-.09,1.71.09,2.47s.49,1.42.94,1.98c.44.56,1.01,1.01,1.69,1.33.68.32,1.48.49,2.39.49s1.76-.16,2.54-.49c.78-.32,1.47-.77,2.07-1.33.6-.56,1.09-1.22,1.48-1.98.38-.76.64-1.58.76-2.47s.1-1.71-.07-2.47c-.17-.76-.47-1.42-.92-1.98-.44-.56-1.01-1.01-1.69-1.33-.68-.32-1.48-.49-2.39-.49s-1.76.16-2.54.49c-.78.32-1.47.77-2.07,1.33-.6.56-1.1,1.22-1.49,1.98-.4.76-.65,1.58-.77,2.47Z"/><path class="cls-1" d="m929.8,116.64h-3.67l.32-2.38h3.67l.54-3.78c.14-1.03.37-1.97.68-2.83.31-.85.74-1.59,1.3-2.21.55-.62,1.24-1.11,2.05-1.46.82-.35,1.79-.52,2.92-.52.36,0,.74.04,1.13.11s.73.18.99.32l-.76,2.52c-.29-.12-.59-.21-.9-.27-.31-.06-.64-.09-.97-.09-.72,0-1.3.13-1.75.38-.44.25-.79.6-1.04,1.04s-.44.98-.58,1.6c-.13.62-.25,1.3-.34,2.02l-.47,3.17h4.1l-.32,2.38h-4.1l-2.02,14.47h-2.81l2.02-14.47Z"/><path class="cls-1" d="m960.11,124.52c-.12.86-.37,1.72-.74,2.57-.37.85-.89,1.63-1.55,2.32-.66.7-1.48,1.26-2.47,1.69-.98.43-2.16.65-3.53.65-1.8,0-3.24-.46-4.32-1.37-1.08-.91-1.66-2.28-1.73-4.1l3.13-.61c.05,1.01.35,1.81.9,2.39.55.59,1.37.88,2.45.88.86,0,1.59-.16,2.18-.47.59-.31,1.07-.72,1.46-1.22.38-.5.68-1.09.88-1.75.2-.66.35-1.34.45-2.03l2.52-17.86h3.02l-2.66,18.9Z"/><path class="cls-1" d="m967.63,114.26h2.81l-2.34,16.85h-2.81l2.34-16.85Zm.29-6.59c.07-.55.34-1.03.79-1.44.46-.41.97-.61,1.55-.61s1.03.2,1.37.61c.34.41.47.89.4,1.44-.1.6-.36,1.09-.79,1.48s-.95.58-1.55.58-1.07-.19-1.4-.58c-.34-.38-.46-.88-.36-1.48Z"/><path class="cls-1" d="m975.48,118.26c.12-.77.2-1.49.23-2.16.04-.67.09-1.28.16-1.84h2.7c-.05.46-.1.91-.14,1.37-.05.46-.11.92-.18,1.4h.07c.24-.41.56-.8.97-1.19s.88-.73,1.4-1.03c.53-.3,1.1-.54,1.73-.72.62-.18,1.28-.27,1.98-.27,1.1,0,2.03.17,2.79.5.76.34,1.36.8,1.8,1.4.44.6.73,1.33.86,2.18.13.85.13,1.78-.02,2.79l-1.44,10.4h-2.81l1.4-10.12c.19-1.42.04-2.53-.47-3.35-.5-.82-1.42-1.22-2.74-1.22-1.82,0-3.23.6-4.23,1.8s-1.63,2.76-1.9,4.68l-1.17,8.21h-2.82l1.8-12.85Z"/><path class="cls-1" d="m1019.22,110.12c-.38-.82-.97-1.41-1.75-1.78-.78-.37-1.63-.56-2.54-.56-.67,0-1.34.08-2.02.25-.67.17-1.29.42-1.85.76-.56.34-1.04.78-1.44,1.33-.4.55-.64,1.2-.74,1.94-.07.58-.05,1.09.05,1.53s.35.85.72,1.21c.37.36.88.7,1.51,1.01s1.45.62,2.43.94c.94.31,1.84.65,2.72,1.01.88.36,1.63.82,2.25,1.37.62.55,1.09,1.24,1.39,2.07.3.83.37,1.87.2,3.11-.19,1.27-.6,2.38-1.22,3.31-.62.94-1.4,1.71-2.32,2.32s-1.94,1.07-3.06,1.37c-1.12.3-2.25.45-3.4.45-.74,0-1.48-.07-2.21-.2-.73-.13-1.42-.34-2.07-.61-.65-.28-1.24-.64-1.76-1.08-.53-.44-.96-.99-1.3-1.64l2.88-2.12c.41.94,1.07,1.64,2,2.12.92.48,1.94.72,3.04.72.65,0,1.31-.1,2-.29.68-.19,1.32-.47,1.91-.85.59-.37,1.09-.83,1.49-1.39.41-.55.66-1.19.76-1.91.1-.79.05-1.43-.14-1.93-.19-.49-.53-.92-1.03-1.28-.49-.36-1.14-.68-1.94-.97-.8-.29-1.75-.62-2.83-1.01-.86-.29-1.66-.62-2.38-.99-.72-.37-1.32-.83-1.8-1.37-.48-.54-.83-1.19-1.04-1.94-.22-.76-.25-1.66-.11-2.72.17-1.22.56-2.29,1.17-3.2.61-.91,1.37-1.67,2.27-2.29.9-.61,1.89-1.07,2.97-1.39,1.08-.31,2.18-.47,3.31-.47,1.44,0,2.72.22,3.83.67s2.07,1.22,2.86,2.32l-2.81,2.16Z"/><path class="cls-1" d="m1027.53,103.89h2.81l-1.8,12.71h.07c.24-.34.55-.67.94-.99.38-.32.83-.62,1.33-.88.5-.26,1.06-.48,1.66-.65.6-.17,1.22-.25,1.87-.25,1.1,0,2.03.17,2.79.5.76.34,1.36.8,1.8,1.4.44.6.73,1.33.86,2.18.13.85.13,1.78-.02,2.79l-1.44,10.4h-2.81l1.4-10.12c.19-1.42.04-2.53-.47-3.35-.5-.82-1.42-1.22-2.74-1.22-1.82,0-3.23.6-4.23,1.8-1,1.2-1.63,2.76-1.89,4.68l-1.15,8.21h-2.81l3.82-27.22Z"/><path class="cls-1" d="m1046.33,114.26h2.81l-2.34,16.85h-2.81l2.34-16.85Zm.29-6.59c.07-.55.34-1.03.79-1.44.46-.41.97-.61,1.55-.61s1.03.2,1.37.61c.34.41.47.89.4,1.44-.1.6-.36,1.09-.79,1.48s-.95.58-1.55.58-1.07-.19-1.4-.58c-.34-.38-.46-.88-.36-1.48Z"/><path class="cls-1" d="m1054.17,118.26c.12-.77.2-1.49.23-2.16.04-.67.09-1.28.16-1.84h2.7c-.05.46-.1.91-.14,1.37-.05.46-.11.92-.18,1.4h.07c.24-.41.56-.8.97-1.19s.88-.73,1.4-1.03c.53-.3,1.1-.54,1.73-.72.62-.18,1.28-.27,1.98-.27,1.1,0,2.03.17,2.79.5.76.34,1.36.8,1.8,1.4.44.6.73,1.33.86,2.18.13.85.13,1.78-.02,2.79l-1.44,10.4h-2.81l1.4-10.12c.19-1.42.04-2.53-.47-3.35-.5-.82-1.42-1.22-2.74-1.22-1.82,0-3.23.6-4.23,1.8s-1.63,2.76-1.9,4.68l-1.17,8.21h-2.82l1.8-12.85Z"/><path class="cls-1" d="m1094.82,124.52c-.12.86-.37,1.72-.74,2.57-.37.85-.89,1.63-1.55,2.32-.66.7-1.48,1.26-2.47,1.69-.98.43-2.16.65-3.53.65-1.8,0-3.24-.46-4.32-1.37-1.08-.91-1.66-2.28-1.73-4.1l3.13-.61c.05,1.01.35,1.81.9,2.39.55.59,1.37.88,2.45.88.86,0,1.59-.16,2.18-.47.59-.31,1.07-.72,1.46-1.22.38-.5.68-1.09.88-1.75.2-.66.35-1.34.45-2.03l2.52-17.86h3.02l-2.66,18.9Z"/><path class="cls-1" d="m1105.37,134.96c-.38.72-.77,1.37-1.15,1.96-.38.59-.81,1.09-1.28,1.51-.47.42-1.01.74-1.64.97-.62.23-1.36.34-2.2.34-.41,0-.83-.02-1.28-.07-.44-.05-.83-.17-1.17-.36l.68-2.45c.48.19,1.13.29,1.94.29.91,0,1.62-.25,2.12-.76.5-.5.97-1.18,1.4-2.02l1.58-3.17-4.61-16.96h3.28l3.38,13.21h.07l6.84-13.21h3.06l-11.05,20.7Z"/><path class="cls-1" d="m1132.33,127.11c-.12.77-.2,1.49-.23,2.16-.04.67-.09,1.28-.16,1.84h-2.66c.05-.46.1-.91.14-1.37.05-.46.1-.92.14-1.4h-.07c-.24.41-.56.8-.97,1.19-.41.38-.87.73-1.39,1.03s-1.09.54-1.71.72c-.62.18-1.28.27-1.98.27-1.1,0-2.03-.17-2.79-.5s-1.36-.8-1.8-1.4c-.44-.6-.73-1.33-.86-2.18-.13-.85-.13-1.78.02-2.79l1.44-10.4h2.81l-1.4,10.12c-.19,1.42-.04,2.53.47,3.35.5.82,1.42,1.22,2.74,1.22,1.82,0,3.23-.6,4.23-1.8,1-1.2,1.63-2.76,1.89-4.68l1.15-8.21h2.81l-1.8,12.85Z"/><path class="cls-1" d="m1148.35,116.64h-4.97l-1.19,8.42c-.07.55-.13,1.06-.16,1.53-.04.47,0,.88.11,1.22s.32.62.63.83c.31.2.78.31,1.4.31.41,0,.83-.05,1.28-.14.44-.1.87-.24,1.28-.43l-.25,2.56c-.5.22-1.06.37-1.66.47-.6.1-1.16.14-1.69.14-1.01,0-1.79-.13-2.36-.4s-.98-.64-1.24-1.12c-.26-.48-.4-1.07-.41-1.78-.01-.71.04-1.49.16-2.36l1.3-9.25h-3.67l.32-2.38h3.67l.68-4.79h2.81l-.68,4.79h4.97l-.32,2.38Z"/><path class="cls-1" d="m1150.76,126.68c.46.7.98,1.25,1.58,1.66.6.41,1.4.61,2.41.61.43,0,.88-.05,1.33-.14.46-.1.88-.25,1.26-.47.38-.22.71-.49.97-.81s.43-.71.5-1.17c.07-.46.02-.83-.14-1.12-.17-.29-.41-.53-.72-.74-.31-.2-.68-.37-1.1-.49s-.85-.23-1.28-.32c-.77-.17-1.5-.36-2.2-.58-.7-.22-1.28-.5-1.76-.85-.48-.35-.84-.8-1.08-1.35-.24-.55-.3-1.26-.18-2.12.1-.82.37-1.54.83-2.16.46-.62,1.01-1.14,1.66-1.55s1.36-.72,2.14-.94c.78-.22,1.57-.32,2.36-.32,1.2,0,2.27.24,3.22.72.95.48,1.64,1.26,2.07,2.34l-2.56,1.55c-.26-.6-.67-1.09-1.21-1.46s-1.23-.56-2.07-.56c-.38,0-.78.05-1.19.14-.41.1-.79.24-1.13.43-.35.19-.64.44-.88.74-.24.3-.38.64-.43,1.03-.05.36.02.67.22.92.19.25.47.47.83.67.36.19.79.36,1.28.5.49.14,1.01.26,1.57.36.72.14,1.4.33,2.03.56.64.23,1.18.53,1.64.92.46.38.79.86.99,1.44.2.58.25,1.28.13,2.12-.12.96-.42,1.78-.9,2.45-.48.67-1.07,1.22-1.76,1.64-.7.42-1.46.73-2.29.92-.83.19-1.66.29-2.5.29-1.44,0-2.65-.22-3.64-.67-.98-.44-1.81-1.27-2.48-2.47l2.48-1.73Z"/><path class="cls-1" d="m1180.35,127.11c-.12.77-.2,1.49-.23,2.16-.04.67-.09,1.28-.16,1.84h-2.66c.05-.46.1-.91.14-1.37.05-.46.1-.92.14-1.4h-.07c-.24.41-.56.8-.97,1.19-.41.38-.87.73-1.39,1.03s-1.09.54-1.71.72c-.62.18-1.28.27-1.98.27-1.1,0-2.03-.17-2.79-.5s-1.36-.8-1.8-1.4c-.44-.6-.73-1.33-.86-2.18-.13-.85-.13-1.78.02-2.79l1.44-10.4h2.81l-1.4,10.12c-.19,1.42-.04,2.53.47,3.35.5.82,1.42,1.22,2.74,1.22,1.82,0,3.23-.6,4.23-1.8,1-1.2,1.63-2.76,1.89-4.68l1.15-8.21h2.81l-1.8,12.85Z"/></g><path class="cls-1" d="m92.57,176.11c-32.19,0-58.37-26.18-58.38-58.37v-43.73c0-2.81,2.28-5.09,5.09-5.09s5.09,2.28,5.09,5.09v43.73c0,26.57,21.62,48.18,48.19,48.18,26.57,0,48.18-21.61,48.18-48.18V48.06c0-2.81,2.28-5.09,5.09-5.09s5.09,2.28,5.09,5.09v69.68c0,32.18-26.19,58.37-58.37,58.37Z"/><path class="cls-1" d="m92.57,148.05c-8.26,0-16.02-3.21-21.86-9.05-5.84-5.84-9.06-13.6-9.06-21.86V37.67c0-2.81,2.28-5.09,5.09-5.09s5.09,2.28,5.09,5.09v79.46c0,5.54,2.16,10.74,6.07,14.66,3.91,3.91,9.12,6.07,14.65,6.07h0c5.54,0,10.74-2.16,14.66-6.07,3.91-3.91,6.07-9.12,6.07-14.65V32.48c0-2.81,2.28-5.09,5.09-5.09s5.09,2.28,5.09,5.09v84.65c0,8.26-3.21,16.02-9.05,21.86s-13.6,9.06-21.85,9.06h0Z"/><path class="cls-1" d="m92.57,124.91c-2.81,0-5.09-2.28-5.09-5.09V14.84c0-2.81,2.28-5.09,5.09-5.09s5.09,2.28,5.09,5.09v104.97c0,2.81-2.28,5.09-5.09,5.09Z"/><g class="cls-2"><path class="cls-1" d="m173.77,45.37v-2.44h12.18v2.44l-4.46.36v15.92h22.66v-15.92l-4.46-.36v-2.44h12.18v2.44l-4.46.36v34.28l4.46.36v2.41h-12.18v-2.41l4.46-.36v-15.57h-22.66v15.57l4.46.36v2.41h-12.18v-2.41l4.46-.36v-34.28l-4.46-.36Z"/><path class="cls-1" d="m229.59,83.35c-3.72,0-6.8-1.36-9.25-4.09-2.44-2.73-3.67-6.2-3.67-10.41v-1.5c0-4.23,1.22-7.74,3.65-10.53s5.38-4.19,8.82-4.19c3.63,0,6.48,1.15,8.56,3.45s3.12,5.36,3.12,9.19v2.79h-20.9v.79c0,3.32.89,6.11,2.67,8.36,1.78,2.25,4.11,3.38,6.99,3.38,2.02,0,3.76-.28,5.2-.85,1.44-.57,2.67-1.38,3.69-2.44l1.4,2.24c-1.11,1.17-2.52,2.09-4.21,2.78s-3.72,1.03-6.07,1.03Zm-.44-27.94c-2.41,0-4.44.93-6.09,2.78-1.65,1.85-2.61,4.17-2.89,6.96l.05.14h17.35v-.82c0-2.57-.76-4.72-2.27-6.46-1.51-1.73-3.57-2.6-6.16-2.6Z"/><path class="cls-1" d="m267.13,82.78c-.22-1-.37-1.87-.47-2.6-.09-.73-.14-1.47-.14-2.22-1.09,1.55-2.55,2.84-4.38,3.86-1.82,1.02-3.88,1.53-6.16,1.53-2.9,0-5.14-.75-6.73-2.24s-2.38-3.52-2.38-6.07c0-2.74,1.18-4.91,3.53-6.51,2.35-1.6,5.54-2.41,9.58-2.41h6.54v-3.91c0-2.12-.68-3.78-2.04-4.98-1.36-1.2-3.26-1.81-5.71-1.81-1.64,0-3.14.22-4.5.67-1.36.45-2.49,1.05-3.41,1.82l-.27,3.97h-2.71l.03-5.69c1.37-1.06,3.01-1.92,4.91-2.57s3.94-.99,6.09-.99c3.26,0,5.89.83,7.88,2.49,1.99,1.66,2.98,4.04,2.98,7.14v14.56c0,.6.01,1.18.04,1.74.03.56.09,1.1.18,1.63l2.96.19v2.41h-5.83Zm-10.78-2.33c2.37,0,4.46-.55,6.27-1.64,1.81-1.09,3.11-2.51,3.91-4.24v-5.94h-6.59c-2.97,0-5.35.62-7.13,1.85-1.78,1.23-2.67,2.79-2.67,4.67,0,1.59.55,2.87,1.66,3.84,1.1.98,2.62,1.46,4.56,1.46Z"/><path class="cls-1" d="m276.95,42.53v-2.44h7.72v39.92l4.46.36v2.41h-12.18v-2.41l4.46-.36v-37.13l-4.46-.36Z"/><path class="cls-1" d="m294.08,80.37l4.46-.36v-24.05l-4.46-.36v-2.44h7.72v26.84l4.46.36v2.41h-12.18v-2.41Zm7.72-35.68h-3.26v-4.6h3.26v4.6Z"/><path class="cls-1" d="m311.15,80.37l4.46-.36v-24.05l-4.46-.36v-2.44h7.36l.3,5.17c.95-1.82,2.23-3.23,3.84-4.23,1.61-.99,3.52-1.49,5.73-1.49,3.21,0,5.65.98,7.33,2.94,1.68,1.96,2.52,5.02,2.52,9.18v15.27l4.46.36v2.41h-12.2v-2.41l4.46-.36v-15.24c0-3.39-.63-5.79-1.9-7.2-1.27-1.4-3.07-2.11-5.4-2.11s-4.17.61-5.62,1.82c-1.45,1.21-2.49,2.82-3.13,4.83v17.9l4.46.36v2.41h-12.2v-2.41Z"/><path class="cls-1" d="m347.71,68.22c0-4.72,1.01-8.5,3.02-11.34,2.02-2.84,4.81-4.25,8.39-4.25,2.1,0,3.92.46,5.46,1.38,1.54.92,2.81,2.22,3.82,3.9l.38-4.73h2.76v29.22c0,3.81-1.03,6.82-3.09,9.03-2.06,2.21-4.94,3.31-8.62,3.31-1.42,0-2.94-.17-4.56-.52-1.61-.35-3.02-.82-4.23-1.42l.88-2.76c1.19.57,2.43,1,3.73,1.31,1.3.31,2.68.46,4.12.46,2.81,0,4.92-.83,6.35-2.49,1.42-1.66,2.13-3.97,2.13-6.92v-3.75c-1,1.51-2.27,2.68-3.8,3.49s-3.33,1.22-5.39,1.22c-3.56,0-6.34-1.32-8.35-3.97-2.01-2.64-3.01-6.17-3.01-10.59v-.57Zm3.28.57c0,3.56.73,6.4,2.18,8.52,1.45,2.13,3.62,3.19,6.5,3.19,2.13,0,3.91-.48,5.32-1.45,1.41-.97,2.5-2.3,3.27-4v-13.74c-.73-1.73-1.78-3.14-3.15-4.23s-3.17-1.63-5.39-1.63c-2.88,0-5.06,1.19-6.53,3.56-1.47,2.37-2.2,5.44-2.2,9.19v.57Z"/></g><g class="cls-2"><path class="cls-1" d="m391.25,45.37v-2.44h12.18v2.44l-4.46.36v15.92h22.66v-15.92l-4.46-.36v-2.44h12.18v2.44l-4.46.36v34.28l4.46.36v2.41h-12.18v-2.41l4.46-.36v-15.57h-22.66v15.57l4.46.36v2.41h-12.18v-2.41l4.46-.36v-34.28l-4.46-.36Z"/><path class="cls-1" d="m454.45,82.78c-.22-1-.37-1.87-.47-2.6-.09-.73-.14-1.47-.14-2.22-1.09,1.55-2.55,2.84-4.38,3.86-1.82,1.02-3.88,1.53-6.16,1.53-2.9,0-5.14-.75-6.73-2.24s-2.38-3.52-2.38-6.07c0-2.74,1.18-4.91,3.53-6.51,2.35-1.6,5.54-2.41,9.58-2.41h6.54v-3.91c0-2.12-.68-3.78-2.04-4.98-1.36-1.2-3.26-1.81-5.71-1.81-1.64,0-3.14.22-4.5.67-1.36.45-2.49,1.05-3.41,1.82l-.27,3.97h-2.71l.03-5.69c1.37-1.06,3.01-1.92,4.91-2.57s3.94-.99,6.09-.99c3.26,0,5.89.83,7.88,2.49,1.99,1.66,2.98,4.04,2.98,7.14v14.56c0,.6.01,1.18.04,1.74.03.56.09,1.1.18,1.63l2.96.19v2.41h-5.83Zm-10.78-2.33c2.37,0,4.46-.55,6.27-1.64,1.81-1.09,3.11-2.51,3.91-4.24v-5.94h-6.59c-2.97,0-5.35.62-7.13,1.85-1.78,1.23-2.67,2.79-2.67,4.67,0,1.59.55,2.87,1.66,3.84,1.1.98,2.62,1.46,4.56,1.46Z"/><path class="cls-1" d="m464.33,80.37l4.46-.36v-24.05l-4.46-.36v-2.44h7.36l.3,5.17c.95-1.82,2.23-3.23,3.84-4.23,1.61-.99,3.52-1.49,5.73-1.49,3.21,0,5.65.98,7.33,2.94,1.68,1.96,2.52,5.02,2.52,9.18v15.27l4.46.36v2.41h-12.2v-2.41l4.46-.36v-15.24c0-3.39-.63-5.79-1.9-7.2-1.27-1.4-3.07-2.11-5.4-2.11s-4.17.61-5.62,1.82c-1.45,1.21-2.49,2.82-3.13,4.83v17.9l4.46.36v2.41h-12.2v-2.41Z"/><path class="cls-1" d="m521.33,78.51c-.98,1.55-2.25,2.75-3.8,3.58-1.55.84-3.38,1.26-5.47,1.26-3.54,0-6.31-1.32-8.3-3.97-2-2.64-3-6.17-3-10.59v-.57c0-4.72,1-8.5,3-11.34,2-2.84,4.78-4.25,8.36-4.25,2.06,0,3.85.43,5.36,1.3,1.51.87,2.77,2.1,3.78,3.71v-14.75l-4.46-.36v-2.44h7.74v39.92l4.46.36v2.41h-7.39l-.27-4.27Zm-17.27-9.71c0,3.58.72,6.42,2.15,8.54,1.43,2.12,3.59,3.17,6.47,3.17,2.1,0,3.85-.47,5.27-1.42,1.41-.95,2.51-2.25,3.3-3.91v-14.01c-.73-1.68-1.78-3.05-3.16-4.1-1.38-1.06-3.16-1.59-5.35-1.59-2.88,0-5.05,1.18-6.5,3.54-1.45,2.36-2.18,5.43-2.18,9.21v.57Z"/><path class="cls-1" d="m555.5,62.31h-2.68l-.38-4.19c-.82-.86-1.86-1.52-3.11-2-1.25-.47-2.69-.71-4.31-.71-2.39,0-4.18.52-5.38,1.55-1.19,1.03-1.79,2.24-1.79,3.63s.52,2.5,1.55,3.39c1.03.89,3.09,1.68,6.17,2.35,3.52.78,6.16,1.86,7.91,3.22,1.75,1.36,2.63,3.21,2.63,5.54,0,2.46-1,4.46-3,5.98s-4.64,2.28-7.92,2.28c-2.19,0-4.18-.31-5.98-.92-1.8-.61-3.35-1.47-4.67-2.59v-5.96h2.65l.47,4.21c.88.88,1.98,1.51,3.32,1.9,1.34.39,2.74.59,4.2.59,2.37,0,4.24-.52,5.61-1.56,1.37-1.04,2.05-2.3,2.05-3.78,0-1.39-.57-2.6-1.71-3.64-1.14-1.04-3.2-1.89-6.17-2.54-3.52-.77-6.13-1.78-7.84-3.05-1.71-1.27-2.56-3.04-2.56-5.32s.96-4.17,2.87-5.73c1.92-1.56,4.44-2.34,7.58-2.34,2.17,0,4.15.33,5.95,1,1.8.67,3.26,1.56,4.39,2.69l.14,5.99Z"/></g></svg>