<?xml version="1.0" encoding="UTF-8"?><svg id="Isolation_Mode" xmlns="http://www.w3.org/2000/svg" viewBox="0 0 150 150"><defs><style>.cls-1{fill:#fff;}</style></defs><g id="Artwork_1"><g id="Group_411"><path class="cls-1" d="m75,144.89c-27.04,0-49.04-22-49.05-49.04v-36.74c0-2.36,1.92-4.28,4.28-4.28s4.28,1.92,4.28,4.28v36.74c0,22.32,18.17,40.48,40.49,40.48,22.32,0,40.48-18.16,40.48-40.48v-58.54c0-2.36,1.92-4.28,4.28-4.28s4.28,1.92,4.28,4.28v58.54c0,27.04-22,49.04-49.04,49.04Z"/><path class="cls-1" d="m75.01,121.31c-14.33,0-25.98-11.65-25.98-25.97V28.58c0-2.36,1.92-4.28,4.28-4.28s4.28,1.92,4.28,4.28v66.76c0,4.65,1.81,9.02,5.1,12.31,3.29,3.29,7.66,5.1,12.31,5.1,4.65,0,9.02-1.81,12.31-5.1s5.1-7.66,5.1-12.31V24.22c0-2.36,1.92-4.28,4.28-4.28s4.28,1.92,4.28,4.28v71.12c0,6.94-2.7,13.46-7.6,18.36-4.9,4.91-11.42,7.61-18.36,7.61Z"/><path class="cls-1" d="m75,101.87c-2.36,0-4.28-1.92-4.28-4.28V9.39c0-2.36,1.92-4.28,4.28-4.28s4.28,1.92,4.28,4.28v88.19c0,2.36-1.92,4.28-4.28,4.28Z"/></g></g></svg>