<?xml version="1.0" encoding="UTF-8"?><svg id="Layer_1" xmlns="http://www.w3.org/2000/svg" viewBox="0 0 150 150"><defs><style>.cls-1{fill:#fff;}.cls-2{opacity:.8;}</style></defs><path id="Icon_material-play-circle-outline" class="cls-1" d="m59.7,80.44l31.18-23.38-31.18-23.38v46.76ZM70.1,5.1c-28.7,0-51.96,23.26-51.96,51.96s23.26,51.96,51.96,51.96,51.96-23.26,51.96-51.96c0-28.69-23.27-51.95-51.96-51.96Zm0,93.53c-22.96,0-41.57-18.61-41.57-41.57S47.14,15.49,70.1,15.49s41.57,18.61,41.57,41.57c-.03,22.94-18.62,41.54-41.57,41.57Z"/><g class="cls-2"><path class="cls-1" d="m30.9,123.66h8.37c1.4,0,2.75.22,4.05.65,1.3.43,2.45,1.09,3.45,1.97,1,.88,1.8,1.98,2.4,3.31s.9,2.9.9,4.69-.35,3.4-1.04,4.73c-.69,1.33-1.58,2.43-2.67,3.3-1.09.87-2.3,1.52-3.63,1.95-1.33.43-2.64.65-3.92.65h-7.92v-21.24Zm6.6,17.82c1.18,0,2.29-.14,3.34-.41,1.05-.27,1.96-.69,2.75-1.26.78-.57,1.4-1.31,1.84-2.22.45-.91.68-2.01.68-3.31s-.2-2.38-.6-3.3c-.4-.92-.96-1.67-1.67-2.23-.71-.57-1.55-.99-2.52-1.26-.97-.27-2.04-.4-3.19-.4h-3.45v14.4h2.82Z"/><path class="cls-1" d="m53.67,123.66h14.07v3.42h-10.29v5.22h9.75v3.42h-9.75v5.76h10.83v3.42h-14.61v-21.24Z"/><path class="cls-1" d="m72.09,123.66h5.76l5.67,14.88,5.73-14.88h5.7v21.24h-3.6v-17.64h-.06l-6.45,17.64h-2.64l-6.45-17.64h-.06v17.64h-3.6v-21.24Z"/><path class="cls-1" d="m98.64,134.37c0-1.7.28-3.25.84-4.64.56-1.39,1.33-2.57,2.33-3.56.99-.98,2.17-1.73,3.54-2.26,1.37-.53,2.88-.79,4.52-.79,1.66-.02,3.18.22,4.56.73,1.38.51,2.57,1.26,3.57,2.23,1,.98,1.78,2.16,2.34,3.54.56,1.38.84,2.92.84,4.62s-.28,3.17-.84,4.53c-.56,1.36-1.34,2.53-2.34,3.51-1,.98-2.19,1.75-3.57,2.29-1.38.55-2.9.83-4.56.85-1.64,0-3.15-.27-4.52-.79-1.37-.53-2.55-1.28-3.54-2.25-.99-.97-1.77-2.13-2.33-3.5-.56-1.36-.84-2.87-.84-4.53Zm3.96-.24c0,1.14.17,2.19.52,3.15.35.96.84,1.79,1.49,2.49.64.7,1.4,1.25,2.29,1.65.89.4,1.88.6,2.98.6s2.1-.2,3-.6c.9-.4,1.67-.95,2.31-1.65.64-.7,1.13-1.53,1.48-2.49.35-.96.52-2.01.52-3.15,0-1.06-.18-2.05-.52-2.97-.35-.92-.85-1.72-1.48-2.41-.64-.69-1.41-1.23-2.31-1.62s-1.9-.58-3-.58-2.1.19-2.98.58c-.89.39-1.66.93-2.29,1.62-.64.69-1.14,1.5-1.49,2.41-.35.92-.52,1.91-.52,2.97Z"/></g></svg>