<?xml version="1.0" encoding="UTF-8"?><svg id="Layer_1" xmlns="http://www.w3.org/2000/svg" viewBox="0 0 150 35"><defs><style>.cls-1{fill:#231f20;}</style></defs><path class="cls-1" d="m6.23,17.22c-.6-.26-1.07-.63-1.41-1.11s-.51-1.04-.51-1.68h1.95c.04.48.23.87.57,1.18.34.31.81.46,1.42.46s1.12-.15,1.47-.46c.35-.3.53-.7.53-1.18,0-.37-.11-.68-.33-.91-.22-.23-.49-.42-.82-.54-.33-.13-.78-.27-1.35-.42-.73-.19-1.31-.39-1.77-.58-.45-.2-.84-.5-1.16-.92s-.48-.97-.48-1.66c0-.64.16-1.2.48-1.68s.77-.85,1.34-1.1c.58-.26,1.24-.38,2-.38,1.08,0,1.96.27,2.65.81s1.07,1.28,1.14,2.22h-2.02c-.03-.4-.22-.75-.58-1.04-.35-.29-.82-.43-1.39-.43-.52,0-.95.13-1.28.4s-.5.65-.5,1.15c0,.34.1.62.31.84s.47.39.79.52c.32.13.76.27,1.31.42.74.2,1.34.41,1.8.61.46.2.86.51,1.18.94s.49.98.49,1.69c0,.57-.15,1.1-.46,1.6-.3.5-.75.9-1.33,1.21-.58.3-1.27.46-2.06.46-.75,0-1.42-.13-2.02-.39Z"/><path class="cls-1" d="m23.13,6.38v11.12h-1.82v-4.86h-5.23v4.86h-1.82V6.38h1.82v4.77h5.23v-4.77h1.82Z"/><path class="cls-1" d="m27.35,6.38v11.12h-1.82V6.38h1.82Z"/><path class="cls-1" d="m31.58,7.85v3.26h3.84v1.49h-3.84v3.41h4.32v1.49h-6.14V6.36h6.14v1.49h-4.32Z"/><path class="cls-1" d="m47.27,17.5h-1.82l-5.49-8.3v8.3h-1.82V6.36h1.82l5.49,8.29V6.36h1.82v11.14Z"/><path class="cls-1" d="m58.81,17.5h-1.82l-5.49-8.3v8.3h-1.82V6.36h1.82l5.49,8.29V6.36h1.82v11.14Z"/><path class="cls-1" d="m69.45,6.38l-3.68,7.09v4.03h-1.82v-4.03l-3.7-7.09h2.03l2.58,5.46,2.58-5.46h2.02Z"/><path class="cls-1" d="m76.7,17.22c-.6-.26-1.07-.63-1.41-1.11s-.51-1.04-.51-1.68h1.95c.04.48.23.87.57,1.18.34.31.81.46,1.42.46s1.12-.15,1.47-.46c.35-.3.53-.7.53-1.18,0-.37-.11-.68-.33-.91-.22-.23-.49-.42-.82-.54-.33-.13-.78-.27-1.35-.42-.73-.19-1.31-.39-1.77-.58-.45-.2-.84-.5-1.16-.92s-.48-.97-.48-1.66c0-.64.16-1.2.48-1.68s.77-.85,1.34-1.1c.58-.26,1.24-.38,2-.38,1.08,0,1.96.27,2.65.81s1.07,1.28,1.14,2.22h-2.02c-.03-.4-.22-.75-.58-1.04-.35-.29-.82-.43-1.39-.43-.52,0-.95.13-1.28.4s-.5.65-.5,1.15c0,.34.1.62.31.84s.47.39.79.52c.32.13.76.27,1.31.42.74.2,1.34.41,1.8.61.46.2.86.51,1.18.94s.49.98.49,1.69c0,.57-.15,1.1-.46,1.6-.3.5-.75.9-1.33,1.21-.58.3-1.27.46-2.06.46-.75,0-1.42-.13-2.02-.39Z"/><path class="cls-1" d="m86.52,6.38v7.09c0,.84.22,1.48.66,1.9s1.06.64,1.85.64,1.42-.21,1.86-.64c.44-.43.66-1.06.66-1.9v-7.09h1.82v7.06c0,.91-.2,1.67-.59,2.3s-.92,1.1-1.58,1.41c-.66.31-1.39.46-2.19.46s-1.53-.15-2.18-.46c-.66-.31-1.18-.78-1.56-1.41-.38-.63-.58-1.4-.58-2.3v-7.06h1.82Z"/><path class="cls-1" d="m102.94,6.38v1.49h-2.96v9.63h-1.82V7.87h-2.98v-1.49h7.76Z"/><path class="cls-1" d="m111.48,15.23h-4.66l-.8,2.27h-1.9l3.98-11.14h2.11l3.98,11.14h-1.92l-.8-2.27Zm-.51-1.49l-1.81-5.17-1.82,5.17h3.63Z"/><path class="cls-1" d="m125.06,17.5h-1.82l-5.49-8.3v8.3h-1.82V6.36h1.82l5.49,8.29V6.36h1.82v11.14Z"/><path class="cls-1" d="m134.65,6.38v1.49h-2.96v9.63h-1.82V7.87h-2.98v-1.49h7.76Z"/><path class="cls-1" d="m138.7,16.88c-.87-.48-1.56-1.16-2.06-2.03-.51-.87-.76-1.85-.76-2.94s.25-2.06.76-2.93c.51-.86,1.19-1.54,2.06-2.02.87-.49,1.82-.73,2.86-.73s2,.24,2.87.73c.87.49,1.55,1.16,2.06,2.02.5.86.75,1.84.75,2.93s-.25,2.07-.75,2.94c-.5.87-1.19,1.55-2.06,2.03-.87.49-1.83.73-2.87.73s-1.99-.24-2.86-.73Zm4.82-1.36c.58-.34,1.03-.82,1.35-1.44.33-.62.49-1.35.49-2.17s-.16-1.54-.49-2.16c-.33-.62-.78-1.09-1.35-1.42-.58-.33-1.23-.5-1.97-.5s-1.39.17-1.97.5c-.58.33-1.03.81-1.35,1.42-.33.62-.49,1.34-.49,2.16s.16,1.54.49,2.17c.33.62.78,1.1,1.35,1.44.58.34,1.23.5,1.97.5s1.39-.17,1.97-.5Z"/><path class="cls-1" d="m9.14,26.26c-.55.44-1.3.66-2.24.66h-1.69l-.62,3.58h-.84l1.48-8.39h2.53c.82,0,1.44.17,1.85.52.41.34.61.81.61,1.39,0,.18-.02.35-.05.5-.13.72-.47,1.3-1.02,1.74Zm.16-1.74c.03-.21.05-.36.05-.44,0-.86-.57-1.3-1.72-1.3h-1.69l-.6,3.44h1.69c1.31,0,2.07-.57,2.27-1.7Z"/><path class="cls-1" d="m11.95,30.27c-.42-.22-.74-.53-.97-.94s-.34-.88-.34-1.42c0-.74.17-1.41.5-2.03s.8-1.11,1.4-1.48c.6-.36,1.27-.55,2-.55.54,0,1.02.11,1.44.33.42.22.74.53.97.94s.35.88.35,1.42c0,.74-.17,1.42-.52,2.04-.34.62-.81,1.11-1.41,1.47-.6.36-1.26.55-2,.55-.54,0-1.02-.11-1.44-.33Zm3.07-.83c.45-.3.8-.71,1.06-1.21.25-.5.38-1.05.38-1.63,0-.66-.19-1.16-.57-1.5-.38-.34-.86-.52-1.45-.52s-1.07.15-1.52.46c-.44.3-.79.71-1.04,1.21-.25.5-.37,1.05-.37,1.63,0,.65.19,1.15.56,1.49.38.35.85.52,1.42.52s1.08-.15,1.53-.46Z"/><path class="cls-1" d="m21.01,24.2c.42-.25.92-.37,1.48-.37l-.16.88h-.24c-.58,0-1.07.15-1.49.44s-.7.78-.86,1.46l-.68,3.89h-.84l1.15-6.55h.84l-.23,1.31c.26-.46.61-.81,1.03-1.06Z"/><path class="cls-1" d="m23.95,28.72c-.02.14-.04.27-.04.37,0,.26.07.43.21.53.14.1.37.15.69.15h.77l-.13.72h-.9c-.5,0-.87-.1-1.12-.29s-.37-.51-.37-.95c0-.18.02-.36.05-.54l.72-4.07h-.91l.13-.71h.91l.29-1.64h.84l-.29,1.64h1.81l-.13.71h-1.81l-.72,4.07Z"/><path class="cls-1" d="m29.64,22.45c-.26.21-.43.56-.52,1.04l-.08.46h1.54l-.13.71h-1.52l-1.03,5.84h-.84l1.03-5.84h-.91l.13-.71h.9l.08-.46c.13-.71.4-1.24.83-1.57.42-.34,1.04-.5,1.86-.5l-.13.72c-.54,0-.94.1-1.2.31Z"/><path class="cls-1" d="m32.17,30.27c-.42-.22-.74-.53-.97-.94s-.34-.88-.34-1.42c0-.74.17-1.41.5-2.03s.8-1.11,1.4-1.48c.6-.36,1.27-.55,2-.55.54,0,1.02.11,1.44.33.42.22.74.53.97.94s.35.88.35,1.42c0,.74-.17,1.42-.52,2.04-.34.62-.81,1.11-1.41,1.47-.6.36-1.26.55-2,.55-.54,0-1.02-.11-1.44-.33Zm3.07-.83c.45-.3.8-.71,1.06-1.21.25-.5.38-1.05.38-1.63,0-.66-.19-1.16-.57-1.5-.38-.34-.86-.52-1.45-.52s-1.07.15-1.52.46c-.44.3-.79.71-1.04,1.21-.25.5-.37,1.05-.37,1.63,0,.65.19,1.15.56,1.49.38.35.85.52,1.42.52s1.08-.15,1.53-.46Z"/><path class="cls-1" d="m40.85,21.62l-1.57,8.88h-.84l1.57-8.88h.84Z"/><path class="cls-1" d="m43.18,23.95l-1.15,6.55h-.84l1.15-6.55h.84Zm-.56-1.37c-.1-.09-.14-.21-.14-.37,0-.21.07-.38.22-.52s.32-.21.52-.21c.15,0,.27.04.37.13.09.09.14.2.14.35,0,.21-.07.39-.22.53s-.31.22-.5.22c-.15,0-.28-.05-.37-.14Z"/><path class="cls-1" d="m45.37,30.27c-.42-.22-.74-.53-.97-.94s-.34-.88-.34-1.42c0-.74.17-1.41.5-2.03s.8-1.11,1.4-1.48c.6-.36,1.27-.55,2-.55.54,0,1.02.11,1.44.33.42.22.74.53.97.94s.35.88.35,1.42c0,.74-.17,1.42-.52,2.04-.34.62-.81,1.11-1.41,1.47-.6.36-1.26.55-2,.55-.54,0-1.02-.11-1.44-.33Zm3.07-.83c.45-.3.8-.71,1.06-1.21.25-.5.38-1.05.38-1.63,0-.66-.19-1.16-.57-1.5-.38-.34-.86-.52-1.45-.52s-1.07.15-1.52.46c-.44.3-.79.71-1.04,1.21-.25.5-.37,1.05-.37,1.63,0,.65.19,1.15.56,1.49.38.35.85.52,1.42.52s1.08-.15,1.53-.46Z"/></svg>