<?xml version="1.0" encoding="utf-8"?>
<!-- Generator: Adobe Illustrator 27.7.0, SVG Export Plug-In . SVG Version: 6.00 Build 0)  -->
<svg version="1.1" id="Layer_1" xmlns="http://www.w3.org/2000/svg" xmlns:xlink="http://www.w3.org/1999/xlink" x="0px" y="0px"
	 viewBox="0 0 275.1 39.2" style="enable-background:new 0 0 275.1 39.2;" xml:space="preserve">
<path d="M10.3,21.2v-5.6H11c0.7,3.6,2.4,5.5,5.2,5.5c1.2,0,2.2-0.4,2.8-1c0.7-0.7,1-1.5,1-2.3s-0.3-1.6-0.9-2.2
	c-0.6-0.6-1.7-1.2-3.2-1.9c-1.4-0.6-2.4-1.1-3.2-1.6s-1.3-1-1.7-1.8S10.4,8.9,10.4,8c0-1.2,0.4-2.3,1.3-3.1s1.9-1.2,3.3-1.2
	c0.7,0,1.4,0.1,2.1,0.4s1.3,0.7,2,1.5c0.4-0.5,0.6-1,0.7-1.5h0.6v4.5h-0.6c-0.3-1.3-0.9-2.4-1.7-3.1s-1.8-1.1-2.9-1.1
	s-1.8,0.3-2.3,0.8S12.2,6.3,12.2,7c0,0.8,0.3,1.5,0.9,2c0.6,0.6,1.7,1.2,3.2,1.9c1.5,0.7,2.6,1.2,3.3,1.6s1.2,1,1.6,1.7
	c0.4,0.7,0.6,1.5,0.6,2.5c0,1.5-0.5,2.7-1.5,3.6s-2.3,1.4-4,1.4c-1.9,0-3.5-0.7-4.8-2.2c-0.3,0.4-0.5,1-0.6,1.7L10.3,21.2L10.3,21.2
	z"/>
<path d="M38,12.7H29v4.2c0,1.4,0,2.3,0.1,2.7s0.2,0.7,0.5,0.9s0.8,0.3,1.6,0.3h0.5v0.6h-7.8v-0.6h0.5c0.7,0,1.3-0.1,1.5-0.3
	c0.3-0.2,0.5-0.5,0.5-0.9s0.1-1.3,0.1-2.8V8.4c0-1.4,0-2.3-0.1-2.7S26.1,5,25.9,4.9S25,4.6,24.1,4.6h-0.3V4h7.8v0.6h-0.3
	c-0.8,0-1.4,0.1-1.7,0.2s-0.4,0.4-0.5,0.8C29,6,29,6.9,29,8.4v3.4H38V8.4c0-1.4,0-2.3-0.1-2.7S37.7,5,37.4,4.9
	c-0.3-0.2-0.8-0.2-1.7-0.2h-0.5V4.1h7.9v0.6h-0.3c-0.8,0-1.4,0.1-1.7,0.2s-0.4,0.4-0.5,0.8c-0.1,0.4-0.1,1.3-0.1,2.7v8.5
	c0,1.4,0,2.3,0.1,2.7c0.1,0.4,0.2,0.7,0.5,0.9s0.8,0.3,1.6,0.3h0.4v0.6h-7.9v-0.6h0.6c0.7,0,1.2-0.1,1.5-0.3
	c0.3-0.2,0.5-0.5,0.5-0.9c0.1-0.4,0.1-1.3,0.1-2.8L38,12.7L38,12.7z"/>
<path d="M44.7,4.6V4h7.9v0.6h-0.4c-0.8,0-1.4,0.1-1.7,0.2S50.1,5.2,50,5.6C50,6,49.9,6.9,49.9,8.4v8.5c0,1.4,0,2.3,0.1,2.7
	c0.1,0.4,0.2,0.7,0.5,0.9s0.8,0.3,1.6,0.3h0.5v0.6h-7.9v-0.6h0.5c0.7,0,1.3-0.1,1.5-0.3c0.3-0.2,0.5-0.5,0.5-0.9
	c0.1-0.4,0.1-1.3,0.1-2.8V8.4c0-1.4,0-2.3-0.1-2.7S47,5,46.8,4.9s-0.8-0.2-1.7-0.2L44.7,4.6L44.7,4.6z"/>
<path d="M68.2,16h0.6l-0.4,5.4H54.1v-0.6h0.4c0.9,0,1.4-0.1,1.7-0.4s0.4-0.5,0.5-0.9c0.1-0.4,0.1-1.3,0.1-2.7V8.4
	c0-1.3,0-2.2-0.1-2.6S56.4,5,56.1,4.9s-0.8-0.2-1.6-0.2V4h12.4l0.4,4.3h-0.6c-0.3-1.2-0.6-2.1-1-2.6c-0.4-0.5-0.9-0.8-1.4-1
	s-1.4-0.2-2.6-0.2h-2.4v7.3h1.8c0.8,0,1.4-0.1,1.8-0.2s0.6-0.4,0.7-0.7s0.2-0.9,0.2-1.7h0.6v5.9h-0.6c0-1-0.1-1.6-0.2-1.9
	c-0.2-0.3-0.4-0.5-0.7-0.6s-0.8-0.1-1.6-0.1h-1.9v4.1c0,2.1,0.1,3.3,0.4,3.6c0.3,0.4,1,0.5,2.1,0.5H63c0.9,0,1.7-0.1,2.2-0.4
	s1.2-0.7,1.7-1.5C67.5,18.2,67.9,17.2,68.2,16L68.2,16z"/>
<path d="M85.8,21.8L73.5,5.5v12c0,1,0.1,1.7,0.2,2c0.1,0.3,0.4,0.6,0.8,0.9s1.2,0.4,2.1,0.4v0.6h-6.5v-0.6c0.8-0.1,1.5-0.2,1.9-0.5
	c0.4-0.2,0.7-0.5,0.8-0.8c0.1-0.3,0.1-1,0.1-2V8.4c0-1.3-0.1-2.2-0.2-2.7c-0.1-0.4-0.3-0.7-0.6-0.9s-0.9-0.2-1.8-0.2V4h5.1
	l10.3,13.6V7.2c0-0.8-0.1-1.3-0.2-1.6c-0.2-0.3-0.5-0.6-1-0.7s-1.1-0.3-1.8-0.3V4H89v0.6c-0.7,0.1-1.3,0.2-1.7,0.4
	c-0.4,0.2-0.7,0.5-0.8,0.8c-0.1,0.3-0.2,0.8-0.2,1.6v14.4H85.8L85.8,21.8z"/>
<path d="M105.4,21.8L93.2,5.5v12c0,1,0.1,1.7,0.2,2c0.1,0.3,0.4,0.6,0.8,0.9s1.2,0.4,2.1,0.4v0.6h-6.5v-0.6c0.8-0.1,1.5-0.2,1.9-0.5
	c0.4-0.2,0.7-0.5,0.8-0.8c0.1-0.3,0.1-1,0.1-2V8.4c0-1.3-0.1-2.2-0.2-2.7C92.2,5.2,92,5,91.8,4.8S90.9,4.6,90,4.6V4h5.1l10.3,13.6
	V7.2c0-0.8-0.1-1.3-0.2-1.6c-0.2-0.3-0.5-0.6-1-0.7s-1.1-0.3-1.8-0.3V4h6.3v0.6c-0.7,0.1-1.3,0.2-1.7,0.4c-0.4,0.2-0.7,0.5-0.8,0.8
	C106,6.2,106,6.7,106,7.4v14.4H105.4L105.4,21.8z"/>
<path d="M118.8,13.8l3.4-5.7c0.6-0.9,0.8-1.6,0.8-2c0-0.4-0.2-0.7-0.4-1c-0.3-0.3-0.8-0.4-1.6-0.4V4.1h5.7v0.6
	c-0.8,0.1-1.4,0.4-1.9,0.9c-0.5,0.5-1.1,1.3-1.8,2.6l-3.9,6.5v2.3c0,1.5,0,2.4,0.1,2.8c0.1,0.4,0.3,0.7,0.6,0.9
	c0.3,0.2,0.9,0.2,1.7,0.2v0.6h-7.4v-0.6h0.3c0.7,0,1.3-0.1,1.5-0.3c0.3-0.2,0.5-0.5,0.5-0.9c0.1-0.4,0.1-1.3,0.1-2.8v-2.1l-4.3-7.1
	c-0.9-1.4-1.5-2.3-1.8-2.6s-0.8-0.4-1.6-0.4V4.1h7v0.6c-1.3,0-2,0.3-2,0.9c0,0.2,0.2,0.7,0.7,1.4L118.8,13.8L118.8,13.8z"/>
<path d="M134.8,21.2v-5.6h0.6c0.7,3.6,2.4,5.5,5.2,5.5c1.2,0,2.2-0.4,2.8-1c0.7-0.7,1-1.5,1-2.3s-0.3-1.6-0.9-2.2
	c-0.6-0.6-1.7-1.2-3.2-1.9c-1.4-0.6-2.4-1.1-3.1-1.6s-1.3-1-1.7-1.8s-0.6-1.5-0.6-2.3c0-1.2,0.4-2.3,1.3-3.1s1.9-1.2,3.3-1.2
	c0.7,0,1.4,0.1,2.1,0.4s1.3,0.7,2,1.5c0.4-0.5,0.6-1,0.7-1.5h0.6v4.5h-0.6c-0.3-1.3-0.9-2.4-1.7-3.1s-1.8-1.1-2.9-1.1
	s-1.8,0.3-2.3,0.8c-0.5,0.6-0.7,1.2-0.7,1.8c0,0.8,0.3,1.5,0.9,2c0.6,0.6,1.7,1.2,3.2,1.9c1.5,0.7,2.6,1.2,3.3,1.6s1.2,1,1.6,1.7
	c0.4,0.7,0.6,1.5,0.6,2.5c0,1.5-0.5,2.7-1.5,3.6s-2.3,1.4-4,1.4c-1.9,0-3.5-0.7-4.8-2.2c-0.3,0.4-0.5,1-0.6,1.7L134.8,21.2
	L134.8,21.2z"/>
<path d="M161.3,4.1h5.8v0.6c-0.8,0.1-1.3,0.2-1.7,0.5c-0.4,0.3-0.6,0.6-0.7,1s-0.1,1.1-0.1,2.1v5.8c0,1.5-0.1,2.6-0.2,3.3
	c-0.1,0.7-0.4,1.4-1,2.1s-1.3,1.2-2.3,1.6s-2.1,0.6-3.5,0.6c-1.5,0-2.9-0.3-3.9-0.8c-1.1-0.5-1.8-1.2-2.3-2c-0.5-0.8-0.7-2-0.7-3.4
	v-1.8l0-5.4c0-1.4,0-2.3-0.1-2.7s-0.2-0.7-0.5-0.8s-0.8-0.2-1.7-0.2H148V4.1h7.9v0.6h-0.4c-0.9,0-1.4,0.1-1.7,0.2
	c-0.3,0.1-0.4,0.4-0.5,0.8c-0.1,0.4-0.1,1.3-0.1,2.7v5.5c0,1.9,0.1,3.2,0.3,4c0.2,0.8,0.7,1.5,1.5,2.1s1.9,0.9,3.2,0.9
	c1.1,0,2-0.2,2.9-0.6c0.9-0.4,1.5-0.9,1.9-1.5s0.7-1.2,0.8-1.8s0.1-1.6,0.1-3V8.1c0-1-0.1-1.7-0.2-2.1s-0.4-0.7-0.7-0.9
	s-0.9-0.4-1.7-0.4L161.3,4.1L161.3,4.1z"/>
<path d="M168.9,8.2h-0.6l0.1-4.2h16.8l0.1,4.2h-0.6c-0.2-1.1-0.5-2-0.8-2.5s-0.7-0.8-1.1-0.9c-0.4-0.1-1.1-0.2-2-0.2h-2.8v12.2
	c0,1.4,0,2.2,0.1,2.7c0.1,0.4,0.2,0.7,0.5,1c0.3,0.2,0.8,0.3,1.6,0.3h0.8v0.6h-8.6v-0.6h0.9c0.7,0,1.3-0.1,1.5-0.3
	c0.3-0.2,0.5-0.5,0.6-0.9s0.1-1.3,0.1-2.8V4.6H173c-1.1,0-1.9,0.1-2.2,0.2c-0.4,0.1-0.8,0.4-1.1,1C169.3,6.3,169.1,7.1,168.9,8.2
	L168.9,8.2z"/>
<path d="M195.1,15h-6.6l-0.4,1.1c-0.7,1.6-1,2.6-1,3.1c0,0.5,0.2,0.9,0.5,1.2s0.8,0.4,1.4,0.4v0.6h-5.2v-0.6
	c0.8-0.1,1.3-0.4,1.7-0.8c0.4-0.4,0.8-1.3,1.4-2.7c0-0.1,0.2-0.6,0.6-1.5l5-12h0.5l5.8,13.8l0.8,1.8c0.2,0.4,0.4,0.7,0.7,1
	c0.3,0.2,0.8,0.4,1.4,0.4v0.6h-6.8v-0.6c0.8,0,1.4-0.1,1.7-0.2c0.3-0.1,0.4-0.4,0.4-0.7c0-0.2-0.2-0.8-0.6-1.7L195.1,15L195.1,15z
	 M194.8,14.4L191.8,7l-3.1,7.4H194.8z"/>
<path d="M217.6,21.8L205.3,5.5v12c0,1,0.1,1.7,0.1,2c0.1,0.3,0.4,0.6,0.8,0.9c0.5,0.3,1.1,0.4,2.1,0.4v0.6h-6.5v-0.6
	c0.8-0.1,1.5-0.2,1.9-0.5c0.4-0.2,0.7-0.5,0.8-0.8c0.1-0.3,0.1-1,0.1-2V8.4c0-1.3-0.1-2.2-0.2-2.7c-0.1-0.4-0.3-0.7-0.6-0.9
	s-0.9-0.2-1.8-0.2V4h5.1l10.3,13.6V7.2c0-0.8-0.1-1.3-0.2-1.6c-0.2-0.3-0.5-0.6-1-0.7s-1.1-0.3-1.8-0.3V4h6.3v0.6
	c-0.7,0.1-1.3,0.2-1.7,0.4c-0.4,0.2-0.7,0.5-0.8,0.8s-0.2,0.8-0.2,1.6v14.4H217.6L217.6,21.8z"/>
<path d="M222.4,8.2h-0.6l0.1-4.2h16.8l0.1,4.2h-0.6c-0.2-1.1-0.5-2-0.8-2.5s-0.7-0.8-1.1-0.9c-0.4-0.1-1.1-0.2-2-0.2h-2.8v12.2
	c0,1.4,0,2.2,0.1,2.7c0.1,0.4,0.2,0.7,0.5,1c0.3,0.2,0.8,0.3,1.6,0.3h0.8v0.6H226v-0.6h0.9c0.7,0,1.3-0.1,1.5-0.3
	c0.3-0.2,0.5-0.5,0.6-0.9s0.1-1.3,0.1-2.8V4.6h-2.6c-1.1,0-1.9,0.1-2.2,0.2c-0.4,0.1-0.8,0.4-1.1,1C222.8,6.3,222.6,7.1,222.4,8.2
	L222.4,8.2z"/>
<path d="M239.6,12.6c0-2.7,0.9-4.8,2.7-6.4s4-2.4,6.7-2.4s5,0.8,6.8,2.4c1.8,1.6,2.7,3.8,2.7,6.6s-0.9,4.9-2.6,6.5
	c-1.7,1.7-4,2.5-6.9,2.5s-5-0.8-6.8-2.5S239.6,15.4,239.6,12.6L239.6,12.6z M242.5,12.7c0,2.8,0.6,4.9,1.7,6.3s2.8,2.1,5,2.1
	c1.9,0,3.5-0.7,4.6-2.1s1.7-3.5,1.7-6.3s-0.6-4.8-1.7-6.2s-2.7-2.2-4.9-2.2s-3.7,0.7-4.8,2.1S242.5,9.9,242.5,12.7L242.5,12.7z"/>
<path d="M11.8,33v1.8c0,0.7,0,1.1,0.1,1.3s0.1,0.4,0.3,0.5s0.4,0.2,0.8,0.2h0.3v0.3h-4v-0.3h0.2c0.4,0,0.6,0,0.8-0.1
	s0.2-0.2,0.3-0.4c0-0.2,0.1-0.7,0.1-1.4v-4.2c0-0.7,0-1.1-0.1-1.3s-0.1-0.3-0.3-0.4c-0.1-0.1-0.4-0.1-0.9-0.1H9.2v-0.3l1.1,0
	c0.9,0,1.6,0,2,0c0.9,0,1.6,0.1,2.1,0.2c0.5,0.1,0.9,0.4,1.2,0.8s0.5,0.8,0.5,1.4c0,0.5-0.1,0.9-0.3,1.2s-0.5,0.6-0.9,0.8
	c-0.4,0.2-1.1,0.3-2.1,0.3L11.8,33L11.8,33z M11.8,32.7h0.6c0.5,0,0.9,0,1.2-0.2c0.3-0.1,0.6-0.3,0.8-0.6s0.3-0.7,0.3-1.2
	c0-0.7-0.2-1.2-0.5-1.6s-0.9-0.5-1.7-0.5c-0.3,0-0.5,0-0.7,0L11.8,32.7L11.8,32.7z"/>
<path d="M16.1,34.5c0-0.8,0.3-1.5,0.8-2s1.2-0.8,2-0.8s1.5,0.3,2,0.8c0.5,0.5,0.8,1.2,0.8,2c0,0.9-0.3,1.6-0.8,2.1s-1.2,0.8-2,0.8
	s-1.4-0.3-2-0.8C16.3,36,16.1,35.4,16.1,34.5z M17.1,34.5c0,0.9,0.1,1.6,0.5,2c0.3,0.4,0.7,0.6,1.3,0.6s1-0.2,1.3-0.6
	c0.3-0.4,0.5-1,0.5-2s-0.1-1.6-0.4-2S19.4,32,18.8,32s-1,0.2-1.3,0.6C17.3,32.9,17.1,33.6,17.1,34.5L17.1,34.5z"/>
<path d="M24.3,33c0.1-0.4,0.4-0.7,0.7-1s0.6-0.4,1-0.4c0.3,0,0.5,0.1,0.7,0.3c0.2,0.2,0.2,0.3,0.2,0.5c0,0.1,0,0.2-0.1,0.3
	s-0.2,0.1-0.3,0.1c-0.2,0-0.4-0.2-0.5-0.5c-0.1-0.2-0.2-0.3-0.3-0.3c-0.2,0-0.4,0.1-0.7,0.4s-0.4,0.5-0.5,0.8s-0.1,0.6-0.1,1.1v0.9
	c0,0.6,0,0.9,0,1.1s0.1,0.3,0.2,0.3c0.1,0.1,0.3,0.1,0.6,0.1h0.2v0.3h-2.8v-0.3h0.1c0.3,0,0.4,0,0.5-0.1c0.1-0.1,0.2-0.2,0.2-0.3
	s0-0.5,0-1.1v-1.5c0-0.6,0-0.9,0-1.1s-0.1-0.2-0.2-0.3c-0.1-0.1-0.3-0.1-0.6-0.1h-0.1V32c0.4,0,0.9-0.2,1.6-0.4
	C24.2,32,24.3,32.4,24.3,33L24.3,33z"/>
<path d="M30.5,32.2h-1.6v3.2c0,0.5,0,0.8,0.1,1s0.1,0.3,0.3,0.4c0.1,0.1,0.3,0.2,0.5,0.2c0.3,0,0.6-0.2,0.8-0.5l0.2,0.1
	c-0.1,0.3-0.3,0.5-0.6,0.6c-0.3,0.1-0.5,0.2-0.8,0.2c-0.3,0-0.6-0.1-0.8-0.3s-0.4-0.4-0.4-0.6S28,35.7,28,35.1v-3h-0.8v-0.3
	c0.4,0,0.7-0.2,0.9-0.4s0.5-0.7,0.5-1.2h0.2v1.6h1.6C30.5,31.9,30.5,32.2,30.5,32.2z"/>
<path d="M33.9,31.9v0.3h-1.1v3.2c0,0.6,0,0.9,0,1.1s0.1,0.3,0.2,0.3c0.1,0.1,0.3,0.1,0.6,0.1h0.3v0.3H31v-0.3c0.3,0,0.5,0,0.6-0.1
	s0.2-0.2,0.2-0.3c0-0.1,0-0.5,0-1.1v-3.2h-1v-0.3h1v-0.5c0-0.5,0-0.9,0.1-1.2c0-0.3,0.2-0.6,0.4-0.9s0.5-0.5,0.8-0.7
	c0.3-0.2,0.7-0.2,1.1-0.2c0.5,0,0.9,0.1,1.2,0.3s0.5,0.4,0.5,0.6c0,0.1,0,0.2-0.1,0.3s-0.2,0.1-0.3,0.1c-0.2,0-0.4-0.2-0.6-0.5
	c-0.2-0.4-0.5-0.6-0.8-0.6c-0.3,0-0.5,0.1-0.7,0.3c-0.2,0.2-0.3,0.4-0.4,0.7s-0.1,0.9-0.1,1.9v0.4L33.9,31.9L33.9,31.9z"/>
<path d="M34.6,34.5c0-0.8,0.3-1.5,0.8-2s1.2-0.8,2-0.8s1.5,0.3,2,0.8c0.5,0.5,0.8,1.2,0.8,2c0,0.9-0.3,1.6-0.8,2.1s-1.2,0.8-2,0.8
	s-1.4-0.3-2-0.8C34.9,36,34.6,35.4,34.6,34.5z M35.7,34.5c0,0.9,0.2,1.6,0.5,2s0.7,0.6,1.3,0.6s1-0.2,1.3-0.6c0.3-0.4,0.5-1,0.5-2
	s-0.2-1.6-0.4-2C38.4,32.2,38,32,37.4,32s-1,0.2-1.3,0.6C35.8,32.9,35.7,33.6,35.7,34.5L35.7,34.5z"/>
<path d="M42.7,28.3v7c0,0.6,0,0.9,0,1.1c0,0.2,0.1,0.3,0.2,0.3c0.1,0.1,0.3,0.1,0.6,0.1h0.2v0.3h-2.8v-0.3H41c0.3,0,0.4,0,0.5-0.1
	s0.2-0.2,0.2-0.3s0-0.5,0-1.1v-5.2c0-0.5,0-0.9-0.2-1c-0.1-0.1-0.3-0.2-0.7-0.2v-0.3c0.3,0,0.6,0,0.9-0.1s0.6-0.1,0.7-0.2
	C42.6,28.3,42.7,28.3,42.7,28.3z"/>
<path d="M45.9,31.7v3.6c0,0.6,0,0.9,0,1.1c0,0.2,0.1,0.3,0.2,0.3c0.1,0.1,0.3,0.1,0.6,0.1h0.1v0.3H44v-0.3h0.2c0.3,0,0.5,0,0.6-0.1
	s0.2-0.2,0.2-0.3s0-0.5,0-1.1v-1.6c0-0.6,0-1-0.1-1.1s-0.1-0.2-0.2-0.3c-0.1,0-0.3,0-0.5,0H44V32c0.8-0.1,1.3-0.2,1.8-0.3L45.9,31.7
	L45.9,31.7z M44.7,29c0-0.2,0.1-0.3,0.2-0.5s0.3-0.2,0.5-0.2s0.3,0.1,0.5,0.2S46,28.8,46,29s-0.1,0.4-0.2,0.5s-0.3,0.2-0.5,0.2
	s-0.3-0.1-0.5-0.2S44.7,29.2,44.7,29z"/>
<path d="M47.6,34.5c0-0.8,0.3-1.5,0.8-2s1.2-0.8,2-0.8s1.5,0.3,2,0.8c0.5,0.5,0.8,1.2,0.8,2c0,0.9-0.3,1.6-0.8,2.1s-1.2,0.8-2,0.8
	s-1.4-0.3-2-0.8C47.9,36,47.6,35.4,47.6,34.5z M48.7,34.5c0,0.9,0.2,1.6,0.5,2s0.7,0.6,1.3,0.6s1-0.2,1.3-0.6c0.3-0.4,0.5-1,0.5-2
	s-0.2-1.6-0.4-2C51.4,32.2,51,32,50.4,32s-1,0.2-1.3,0.6C48.8,32.9,48.7,33.6,48.7,34.5L48.7,34.5z"/>
</svg>
