<?xml version="1.0" encoding="UTF-8"?><svg id="Layer_1" xmlns="http://www.w3.org/2000/svg" viewBox="0 0 275.11 39.23"><defs><style>.cls-1{fill:#fff;}</style></defs><path class="cls-1" d="m10.31,21.22v-5.58h.64c.72,3.63,2.44,5.45,5.16,5.45,1.22,0,2.16-.35,2.83-1.04.67-.7,1-1.47,1-2.33s-.29-1.6-.88-2.19c-.59-.58-1.66-1.2-3.22-1.87-1.39-.6-2.44-1.12-3.15-1.57s-1.26-1.03-1.66-1.75-.59-1.48-.59-2.29c0-1.24.43-2.27,1.29-3.09.86-.82,1.94-1.23,3.26-1.23.73,0,1.42.12,2.07.36s1.31.73,2,1.48c.39-.47.61-.98.67-1.52h.56v4.54h-.56c-.32-1.32-.9-2.36-1.72-3.12s-1.78-1.14-2.86-1.14-1.79.28-2.27.84c-.48.56-.72,1.17-.72,1.84,0,.8.3,1.48.91,2.03.6.56,1.68,1.19,3.24,1.89,1.49.67,2.58,1.2,3.26,1.61.68.41,1.22.97,1.63,1.68.41.72.61,1.54.61,2.48,0,1.48-.5,2.69-1.48,3.62s-2.31,1.39-3.97,1.39c-1.9,0-3.49-.73-4.76-2.19-.28.4-.49.96-.63,1.69h-.64Z"/><path class="cls-1" d="m38.03,12.7h-9.06v4.18c0,1.36.03,2.26.1,2.68s.24.74.52.94c.28.2.8.31,1.58.31h.45v.59h-7.8v-.59h.45c.74,0,1.26-.09,1.54-.28.29-.19.47-.48.55-.88.08-.4.12-1.32.12-2.77v-8.51c0-1.38-.04-2.27-.12-2.67s-.25-.68-.51-.83c-.26-.15-.83-.23-1.71-.23h-.32v-.59h7.8v.59h-.32c-.84,0-1.4.07-1.66.21-.26.14-.44.4-.53.79-.09.38-.13,1.3-.13,2.74v3.44h9.06v-3.44c0-1.38-.04-2.27-.12-2.67s-.25-.68-.5-.83c-.26-.15-.83-.23-1.71-.23h-.46v-.59h7.89v.59h-.26c-.85,0-1.41.07-1.68.21s-.44.4-.53.79c-.09.38-.13,1.3-.13,2.74v8.51c0,1.36.03,2.26.1,2.68.06.42.24.74.52.94.28.2.81.31,1.59.31h.4v.59h-7.89v-.59h.6c.73,0,1.24-.09,1.53-.28.29-.19.47-.48.54-.88.08-.4.12-1.32.12-2.77v-4.18Z"/><path class="cls-1" d="m44.69,4.64v-.59h7.93v.59h-.37c-.85,0-1.41.07-1.68.21s-.44.4-.53.79c-.09.38-.13,1.3-.13,2.74v8.51c0,1.36.03,2.26.1,2.68.06.42.23.74.51.94s.81.31,1.59.31h.51v.59h-7.93v-.59h.51c.74,0,1.26-.09,1.54-.28.29-.19.47-.48.54-.88.08-.4.12-1.32.12-2.77v-8.51c0-1.38-.04-2.27-.12-2.67s-.25-.68-.51-.83c-.26-.15-.84-.23-1.71-.23h-.37Z"/><path class="cls-1" d="m68.24,16h.61l-.37,5.4h-14.37v-.59h.36c.86,0,1.42-.12,1.67-.35.25-.23.41-.52.48-.88.07-.35.1-1.26.1-2.71v-8.51c0-1.32-.04-2.19-.11-2.61s-.24-.71-.5-.88c-.26-.17-.81-.25-1.64-.25v-.59h12.4l.41,4.32h-.6c-.27-1.21-.61-2.07-1-2.58-.4-.51-.87-.83-1.41-.96s-1.42-.2-2.64-.2h-2.41v7.28h1.84c.84,0,1.43-.07,1.77-.22s.56-.36.67-.66.16-.87.16-1.72h.6v5.94h-.6c0-.96-.08-1.61-.24-1.94-.16-.33-.4-.54-.71-.64s-.84-.15-1.58-.15h-1.91v4.11c0,2.06.13,3.26.4,3.63.26.36.98.54,2.14.54h1.29c.91,0,1.66-.12,2.25-.35.59-.23,1.15-.72,1.68-1.45.53-.73.95-1.73,1.26-3.01Z"/><path class="cls-1" d="m85.8,21.79l-12.27-16.26v12.04c0,1,.05,1.66.15,1.97.1.32.38.61.84.87.46.26,1.15.4,2.07.4v.59h-6.47v-.59c.83-.06,1.46-.21,1.89-.45.43-.24.69-.5.77-.79.08-.28.12-.95.12-2v-9.2c0-1.33-.06-2.22-.19-2.67-.12-.45-.32-.74-.59-.87s-.87-.19-1.8-.19v-.59h5.12l10.27,13.57V7.25c0-.77-.08-1.31-.24-1.61-.16-.31-.48-.55-.97-.73-.49-.18-1.07-.27-1.75-.27v-.59h6.29v.59c-.73.06-1.31.2-1.73.42-.42.22-.69.49-.81.8-.12.31-.17.84-.17,1.58v14.35h-.55Z"/><path class="cls-1" d="m105.45,21.79l-12.27-16.26v12.04c0,1,.05,1.66.15,1.97.1.32.38.61.84.87.46.26,1.15.4,2.07.4v.59h-6.47v-.59c.83-.06,1.46-.21,1.89-.45.43-.24.69-.5.77-.79.08-.28.12-.95.12-2v-9.2c0-1.33-.06-2.22-.19-2.67-.12-.45-.32-.74-.59-.87s-.87-.19-1.8-.19v-.59h5.12l10.27,13.57V7.25c0-.77-.08-1.31-.24-1.61-.16-.31-.48-.55-.97-.73-.49-.18-1.07-.27-1.75-.27v-.59h6.29v.59c-.73.06-1.31.2-1.73.42-.42.22-.69.49-.81.8-.12.31-.17.84-.17,1.58v14.35h-.55Z"/><path class="cls-1" d="m118.83,13.81l3.42-5.74c.56-.94.84-1.6.84-2,0-.36-.15-.69-.45-.98-.3-.3-.83-.45-1.6-.45v-.59h5.67v.59c-.78.11-1.42.4-1.9.88-.48.47-1.1,1.33-1.85,2.58l-3.89,6.49v2.3c0,1.48.04,2.42.13,2.82.09.41.28.69.58.86.29.17.87.25,1.73.25v.59h-7.39v-.59h.28c.74,0,1.26-.09,1.54-.28.29-.19.47-.48.54-.88.08-.4.11-1.32.11-2.77v-2.14l-4.32-7.1c-.88-1.43-1.46-2.29-1.75-2.56s-.81-.42-1.56-.44v-.59h7.04v.59c-1.31,0-1.97.3-1.97.9,0,.24.22.72.65,1.43l4.15,6.84Z"/><path class="cls-1" d="m134.78,21.22v-5.58h.64c.72,3.63,2.44,5.45,5.16,5.45,1.22,0,2.16-.35,2.83-1.04.67-.7,1-1.47,1-2.33s-.29-1.6-.88-2.19c-.59-.58-1.66-1.2-3.22-1.87-1.39-.6-2.44-1.12-3.15-1.57s-1.26-1.03-1.66-1.75-.59-1.48-.59-2.29c0-1.24.43-2.27,1.29-3.09.86-.82,1.94-1.23,3.26-1.23.73,0,1.42.12,2.07.36s1.31.73,2,1.48c.39-.47.61-.98.67-1.52h.56v4.54h-.56c-.32-1.32-.9-2.36-1.72-3.12s-1.78-1.14-2.86-1.14-1.79.28-2.27.84c-.48.56-.72,1.17-.72,1.84,0,.8.3,1.48.91,2.03.6.56,1.68,1.19,3.24,1.89,1.49.67,2.58,1.2,3.26,1.61.68.41,1.22.97,1.63,1.68.41.72.61,1.54.61,2.48,0,1.48-.5,2.69-1.48,3.62s-2.31,1.39-3.97,1.39c-1.9,0-3.49-.73-4.76-2.19-.28.4-.49.96-.63,1.69h-.64Z"/><path class="cls-1" d="m161.3,4.05h5.79v.59c-.77.05-1.34.22-1.72.52-.38.29-.61.62-.7.99s-.13,1.08-.13,2.14v5.77c0,1.48-.06,2.57-.17,3.29-.12.72-.45,1.42-1,2.11-.55.69-1.32,1.24-2.32,1.65-1,.41-2.15.61-3.46.61-1.54,0-2.85-.26-3.92-.79-1.07-.52-1.83-1.2-2.29-2.03-.46-.83-.68-1.95-.68-3.35v-1.78s.01-5.4.01-5.4c0-1.38-.04-2.27-.12-2.67s-.25-.68-.51-.83c-.26-.15-.83-.23-1.71-.23h-.4v-.59h7.92v.59h-.35c-.85,0-1.41.07-1.68.21-.26.14-.44.4-.53.79-.09.38-.13,1.3-.13,2.74v5.46c0,1.89.09,3.24.26,4.03.17.79.67,1.49,1.48,2.08s1.89.89,3.24.89c1.06,0,2.02-.2,2.88-.59.87-.4,1.51-.89,1.93-1.48.42-.59.68-1.2.77-1.83s.14-1.61.14-2.96v-5.91c0-.98-.06-1.67-.17-2.06-.11-.39-.35-.7-.72-.93-.37-.23-.95-.37-1.74-.42v-.59Z"/><path class="cls-1" d="m168.91,8.22h-.59l.09-4.17h16.84l.09,4.17h-.55c-.2-1.14-.47-1.97-.81-2.48-.34-.51-.71-.82-1.1-.93-.39-.11-1.06-.17-2.01-.17h-2.79v12.24c0,1.36.03,2.25.1,2.67.06.43.24.74.52.95.28.2.81.31,1.59.31h.84v.59h-8.65v-.59h.9c.74,0,1.26-.09,1.54-.28.29-.19.47-.48.55-.88.08-.4.12-1.32.12-2.77V4.64h-2.57c-1.12,0-1.87.05-2.25.16-.38.11-.75.43-1.08.97-.34.54-.6,1.36-.77,2.46Z"/><path class="cls-1" d="m195.05,15h-6.59l-.45,1.1c-.67,1.6-1,2.64-1,3.12,0,.52.18.91.53,1.18.35.27.81.4,1.36.4v.59h-5.16v-.59c.77-.12,1.34-.39,1.71-.81.38-.42.83-1.31,1.36-2.67.04-.13.25-.62.61-1.48l5.04-12.04h.5l5.8,13.78.79,1.82c.18.41.42.73.72.97.3.23.76.38,1.36.44v.59h-6.82v-.59c.84,0,1.4-.06,1.7-.19.29-.12.44-.37.44-.74,0-.19-.2-.75-.59-1.68l-1.33-3.21Zm-.22-.58l-3.07-7.4-3.06,7.4h6.13Z"/><path class="cls-1" d="m217.62,21.79l-12.27-16.26v12.04c0,1,.05,1.66.15,1.97.1.32.38.61.84.87.46.26,1.15.4,2.07.4v.59h-6.47v-.59c.83-.06,1.46-.21,1.89-.45.43-.24.69-.5.77-.79.08-.28.12-.95.12-2v-9.2c0-1.33-.06-2.22-.19-2.67-.12-.45-.32-.74-.59-.87s-.87-.19-1.8-.19v-.59h5.12l10.27,13.57V7.25c0-.77-.08-1.31-.24-1.61-.16-.31-.48-.55-.97-.73-.49-.18-1.07-.27-1.75-.27v-.59h6.29v.59c-.73.06-1.31.2-1.73.42-.42.22-.69.49-.81.8-.12.31-.17.84-.17,1.58v14.35h-.55Z"/><path class="cls-1" d="m222.39,8.22h-.59l.09-4.17h16.84l.09,4.17h-.55c-.2-1.14-.47-1.97-.81-2.48-.34-.51-.71-.82-1.1-.93-.39-.11-1.06-.17-2.01-.17h-2.79v12.24c0,1.36.03,2.25.1,2.67.06.43.24.74.52.95.28.2.81.31,1.59.31h.84v.59h-8.65v-.59h.9c.74,0,1.26-.09,1.54-.28.29-.19.47-.48.55-.88.08-.4.12-1.32.12-2.77V4.64h-2.57c-1.12,0-1.87.05-2.25.16-.38.11-.75.43-1.08.97-.34.54-.6,1.36-.77,2.46Z"/><path class="cls-1" d="m239.56,12.61c0-2.68.9-4.83,2.69-6.45s4.03-2.43,6.7-2.43,4.96.8,6.77,2.41c1.81,1.6,2.72,3.79,2.72,6.56s-.87,4.86-2.6,6.53c-1.74,1.66-4.02,2.49-6.85,2.49s-5.01-.83-6.78-2.49c-1.77-1.66-2.65-3.87-2.65-6.61Zm2.93.09c0,2.79.56,4.88,1.67,6.28,1.11,1.4,2.78,2.1,5.01,2.1,1.95,0,3.5-.7,4.63-2.1,1.13-1.4,1.7-3.48,1.7-6.26s-.56-4.76-1.68-6.2c-1.12-1.44-2.74-2.16-4.86-2.16s-3.69.7-4.8,2.1c-1.11,1.4-1.67,3.48-1.67,6.22Z"/><path class="cls-1" d="m11.82,33.04v1.82c0,.68.02,1.13.05,1.34.03.21.12.37.26.47s.41.15.79.15h.29v.29h-3.97v-.29h.23c.37,0,.63-.05.77-.14s.23-.24.27-.44c.04-.2.06-.66.06-1.39v-4.25c0-.69-.02-1.14-.06-1.34-.04-.2-.12-.34-.26-.42-.13-.08-.42-.12-.86-.12h-.16v-.29l1.09-.04c.87-.03,1.55-.04,2.04-.04.9,0,1.58.07,2.07.21.48.14.88.39,1.19.75.31.36.46.81.46,1.36,0,.47-.11.89-.32,1.25s-.51.64-.91.83c-.39.19-1.09.28-2.08.28h-.95Zm0-.32h.62c.5,0,.9-.05,1.21-.15.31-.1.56-.31.77-.63s.31-.71.31-1.18c0-.72-.18-1.24-.53-1.58s-.92-.5-1.71-.5c-.29,0-.51,0-.67.03v4.02Z"/><path class="cls-1" d="m16.06,34.49c0-.8.27-1.47.81-2.01s1.2-.81,1.98-.81,1.45.27,1.99.81.81,1.21.81,2.01c0,.88-.27,1.58-.82,2.08s-1.21.76-1.98.76-1.43-.26-1.97-.77c-.54-.51-.82-1.2-.82-2.07Zm1.06.03c0,.93.15,1.58.45,1.95.3.37.73.56,1.27.56s.99-.19,1.28-.56c.3-.37.45-1.02.45-1.95s-.15-1.58-.44-1.97c-.29-.39-.72-.59-1.29-.59s-.99.2-1.28.59c-.3.39-.45,1.05-.45,1.97Z"/><path class="cls-1" d="m24.3,33c.14-.38.38-.7.71-.95s.64-.38.96-.38c.28,0,.5.09.67.26s.24.35.24.54c0,.12-.04.23-.12.32-.08.09-.18.13-.3.13-.21,0-.38-.16-.49-.47-.08-.21-.19-.32-.34-.32-.18,0-.4.12-.66.37-.26.25-.42.51-.49.78-.07.27-.11.64-.11,1.11v.93c0,.56,0,.91.02,1.06s.08.26.18.33c.11.08.3.11.57.11h.18v.29h-2.78v-.29h.13c.26,0,.44-.04.55-.11.11-.07.17-.17.2-.3s.03-.49.03-1.1v-1.48c0-.56,0-.92-.02-1.06s-.08-.25-.18-.33c-.11-.08-.3-.12-.57-.12h-.13v-.29c.4-.05.92-.17,1.57-.38.12.34.19.78.21,1.34Z"/><path class="cls-1" d="m30.5,32.17h-1.58v3.17c0,.49.02.81.06.98s.13.3.27.41c.14.1.29.15.45.15.31,0,.57-.17.8-.52l.21.12c-.13.28-.33.49-.58.64-.26.14-.52.21-.78.21-.31,0-.58-.09-.81-.27-.23-.18-.38-.39-.44-.64s-.09-.67-.09-1.28v-2.97h-.76v-.29c.35,0,.66-.16.94-.44s.45-.69.53-1.2h.2v1.64h1.58v.29Z"/><path class="cls-1" d="m33.9,31.88v.29h-1.09v3.15c0,.56,0,.91.02,1.06s.08.26.18.33c.11.08.3.11.57.11h.27v.29h-2.83v-.29c.29,0,.5-.03.61-.09s.18-.15.21-.27c.03-.12.04-.5.04-1.14v-3.15h-.98v-.29h.98v-.47c0-.53.02-.94.06-1.23.04-.29.16-.59.36-.9.2-.31.45-.55.75-.71.3-.17.66-.25,1.07-.25.5,0,.91.1,1.21.31s.45.42.45.64c0,.12-.04.23-.13.31s-.19.12-.3.12c-.23,0-.43-.17-.62-.52-.21-.38-.48-.58-.81-.58-.27,0-.5.1-.71.29-.2.19-.32.44-.36.73s-.06.91-.06,1.87v.4h1.09Z"/><path class="cls-1" d="m34.63,34.49c0-.8.27-1.47.81-2.01s1.2-.81,1.98-.81,1.45.27,1.99.81.81,1.21.81,2.01c0,.88-.27,1.58-.82,2.08s-1.21.76-1.98.76-1.43-.26-1.97-.77c-.54-.51-.82-1.2-.82-2.07Zm1.06.03c0,.93.15,1.58.45,1.95.3.37.73.56,1.27.56s.99-.19,1.28-.56c.3-.37.45-1.02.45-1.95s-.15-1.58-.44-1.97c-.29-.39-.72-.59-1.29-.59s-.99.2-1.28.59c-.3.39-.45,1.05-.45,1.97Z"/><path class="cls-1" d="m42.7,28.32v7c0,.56,0,.91.02,1.06.01.15.08.26.18.33.11.08.3.11.57.11h.15v.29h-2.8v-.29h.18c.26,0,.44-.04.55-.11s.17-.17.2-.3.03-.49.03-1.1v-5.18c0-.55-.05-.9-.15-1.04-.1-.14-.34-.21-.72-.21v-.29c.26,0,.57-.03.92-.09.35-.06.59-.12.73-.18h.14Z"/><path class="cls-1" d="m45.94,31.67v3.65c0,.56,0,.91.03,1.06.02.15.08.26.19.33.11.08.3.11.57.11h.13v.29h-2.82v-.29h.22c.3,0,.5-.04.59-.13s.15-.19.16-.31.02-.47.02-1.06v-1.59c0-.61-.03-.99-.09-1.13-.06-.14-.13-.22-.23-.26-.1-.03-.26-.05-.5-.05h-.17v-.29c.76-.08,1.35-.19,1.77-.34h.14Zm-1.24-2.67c0-.18.07-.34.2-.47s.29-.2.47-.2.34.07.47.2.19.29.19.47-.06.35-.19.48-.28.2-.47.2-.34-.07-.47-.2-.2-.29-.2-.48Z"/><path class="cls-1" d="m47.6,34.49c0-.8.27-1.47.81-2.01s1.2-.81,1.98-.81,1.45.27,1.99.81.81,1.21.81,2.01c0,.88-.27,1.58-.82,2.08s-1.21.76-1.98.76-1.43-.26-1.97-.77c-.54-.51-.82-1.2-.82-2.07Zm1.06.03c0,.93.15,1.58.45,1.95.3.37.73.56,1.27.56s.99-.19,1.28-.56c.3-.37.45-1.02.45-1.95s-.15-1.58-.44-1.97c-.29-.39-.72-.59-1.29-.59s-.99.2-1.28.59c-.3.39-.45,1.05-.45,1.97Z"/></svg>